<?xml version="1.0" encoding="UTF-8" standalone="no"?>
<!-- Created with Inkscape (http://www.inkscape.org/) -->

<svg
   version="1.1"
   id="svg1"
   width="1024"
   height="1024"
   viewBox="0 0 1024 1024"
   sodipodi:docname="sklogo_mono.svg"
   inkscape:version="1.3 (0e150ed6c4, 2023-07-21)"
   xml:space="preserve"
   xmlns:inkscape="http://www.inkscape.org/namespaces/inkscape"
   xmlns:sodipodi="http://sodipodi.sourceforge.net/DTD/sodipodi-0.dtd"
   xmlns="http://www.w3.org/2000/svg"
   xmlns:svg="http://www.w3.org/2000/svg"><defs
     id="defs1" /><sodipodi:namedview
     id="namedview1"
     pagecolor="#ffffff"
     bordercolor="#000000"
     borderopacity="0.25"
     inkscape:showpageshadow="2"
     inkscape:pageopacity="0.0"
     inkscape:pagecheckerboard="0"
     inkscape:deskcolor="#d1d1d1"
     inkscape:zoom="0.50000001"
     inkscape:cx="580.99998"
     inkscape:cy="486.99999"
     inkscape:window-width="1920"
     inkscape:window-height="1012"
     inkscape:window-x="0"
     inkscape:window-y="34"
     inkscape:window-maximized="1"
     inkscape:current-layer="g1"
     inkscape:lockguides="true" /><g
     inkscape:groupmode="layer"
     inkscape:label="Image"
     id="g1"><path
       id="rect13-8"
       style="display:inline;fill:#000000;fill-opacity:1;stroke-width:1.08164"
       d="m 598.78477,361.84463 c -5.12537,-5.55852 -13.84246,-5.85801 -19.47023,-0.66892 -5.28509,4.87354 -5.96402,12.85293 -1.78143,18.41052 5.36891,-3.50595 11.99742,-3.33845 15.74828,0.72927 l 69.82033,75.81962 c 3.24918,4.11211 2.73806,10.39955 -1.05454,15.24853 5.18783,4.89612 13.43825,4.94352 18.82804,-0.0248 5.41012,-4.98744 5.9823,-13.22468 1.46801,-18.79368 z m -20.40027,22.13426 -9.61807,8.86748 3.28461,3.56263 9.61806,-8.86749 z m 6.94651,7.53449 -9.61807,8.86748 3.28593,3.56406 9.61806,-8.86748 z m 6.96504,7.55459 -9.61807,8.86748 3.28593,3.56406 9.61806,-8.86748 z m 6.9293,7.51582 -9.61807,8.86749 3.2846,3.56261 9.61806,-8.86748 z m 6.96504,7.55459 -9.61807,8.86749 3.2846,3.56262 9.61807,-8.86749 z m 6.90944,7.49428 -9.61807,8.86749 3.28592,3.56405 9.61807,-8.86749 z m 6.96504,7.55459 -9.61807,8.86749 3.28592,3.56405 9.61807,-8.86748 z m 6.92929,7.51582 -9.61806,8.86749 3.2846,3.56262 9.61806,-8.86749 z m 6.96504,7.55459 -9.61806,8.86749 3.2846,3.56262 9.61807,-8.86748 z m 6.94651,7.53449 -9.61806,8.86749 3.28592,3.56406 9.61807,-8.86749 z m 6.96504,7.55459 -9.61806,8.86749 3.28592,3.56406 9.61807,-8.86749 z m 6.9293,7.51582 -9.61806,8.86749 3.28459,3.56262 9.61807,-8.86749 z m -90.76697,-72.97821 c -5.12538,-5.55852 -13.84247,-5.85801 -19.47023,-0.66893 -5.28509,4.87355 -5.96402,12.85294 -1.78143,18.41053 5.3689,-3.50595 11.99742,-3.33845 15.74827,0.72928 l 69.82034,75.81961 c 3.24917,4.11211 2.73805,10.39955 -1.05454,15.24853 5.18783,4.89612 13.43825,4.94351 18.82803,-0.0248 5.41013,-4.98743 5.9823,-13.22468 1.46802,-18.79368 z" /><path
       id="path3"
       style="display:inline;fill:#000000;fill-opacity:1"
       d="m 544.63347,418.65698 c -1.14236,1.06137 -480.807232,450.21929 -480.807232,450.21929 0,0 -3.621914,47.10722 -4.319478,56.11904 -0.697571,9.01181 8.456639,18.73993 17.306902,18.84264 8.850263,0.10271 56.386518,0.28126 56.386518,0.28126 L 620.84745,501.46083 610.23756,489.81404 c -1.77272,1.6571 -66.4616,60.69173 -66.88675,61.66701 -0.43096,0.98865 0.10953,6.22078 -0.83651,7.8191 -0.25788,0.43563 -42.16548,39.83058 -80.68025,74.7888 l -6.2e-4,-5.56755 77.74283,-71.67589 3.00048,-40.29801 14.90958,-13.74606 -3.77973,-4.09967 -16.50494,15.21691 0.12444,0.13498 -0.16662,0.0872 -2.07647,39.77022 -77.67975,71.61773 -0.66725,13.19924 c -1.78449,1.61938 -2.36663,2.15269 -3.64831,3.31844 l 0.25,-20.45481 77.22886,-71.20203 1.20401,-39.42276 38.9605,-35.92008 c 2.94844,0.78713 6.14668,-0.0247 8.44524,-2.14368 3.64949,-3.36468 3.97048,-8.95326 0.71693,-12.48262 -3.03242,-3.27582 -8.13834,-3.64371 -11.81231,-0.85143 l -0.009,-0.0556 -0.52412,0.48322 c -0.0521,0.0413 -0.10439,0.0826 -0.15576,0.12497 -0.0462,0.048 -0.0923,0.0959 -0.13718,0.14511 l -56.8698,52.43176 3.64469,3.9532 50.91631,-46.94287 c 0.26359,0.74453 0.62843,1.44659 1.08462,2.08694 l -55.43815,51.11184 3.77973,4.09966 12.20567,-11.25315 -1.14816,32.29423 -76.97183,70.96505 -1.27509,28.40785 c -3.2743,2.98818 -6.12114,5.58973 -13.32894,12.12671 l -11.3407,-12.43311 -2.27163,-15.77889 -5.24927,-5.69359 -18.21229,16.79103 0.13901,0.15078 -1.1547,25.00007 -38.50098,35.49642 -0.46654,7.50717 43.71783,-40.30616 1.37026,-25.47509 13.02847,-12.01174 3.04576,18.12552 11.65418,12.47351 c -25.50173,23.12671 -48.93649,44.39209 -76.69443,69.54573 l 0.09,-4.29362 71.54245,-65.95938 -8.62582,-8.8978 -2.65886,5.23012 3.44127,3.82196 -64.88964,59.82574 1.64327,-23.8247 36.64285,-33.7833 1.41659,-26.51401 22.71978,-20.94675 1.4161,-37.25931 44.46033,-40.9907 -3.52687,-3.8254 -47.19573,43.51265 0.57251,0.1974 -1.2491,36.38008 -23.03569,21.23801 -0.0586,0.0142 -0.002,0.0414 -0.13929,0.12842 0.12577,0.13642 -1.36495,26.57 -35.67359,32.88967 -0.0512,0.002 -1.31411,41.48746 c -2.57901,2.33694 -4.64445,4.21386 -7.2183,6.54605 0.35257,-7.32296 2.53222,-52.67122 2.15384,-48.34781 -0.40898,4.67419 -6.18238,7.55152 -6.18238,7.55152 l -1.34555,45.66598 c -17.84584,16.16974 -35.05556,31.78547 -51.82291,46.97379 l 0.84122,-11.69663 46.12163,-42.52236 1.89671,-38.95093 c 2.38413,0.0904 4.73582,-0.78626 6.52043,-2.43055 3.6501,-3.36521 3.97044,-8.95494 0.71561,-12.48405 -3.25399,-3.52899 -8.85017,-3.66216 -12.49966,-0.29744 -3.65074,3.36448 -3.97242,8.95402 -0.71836,12.48394 0.31733,0.34288 0.66271,0.65876 1.03286,0.94452 l -1.5672,37.91662 -46.85111,43.19491 -1.11439,18.93521 c -18.46576,16.72625 -42.16956,38.22135 -56.96823,51.62194 l -0.85713,-4.0128 52.84768,-48.72351 0.91824,-20.64052 47.00331,-43.33524 3.18773,-64.31315 c 4.20534,-4.5692 4.30851,-11.47344 0.23744,-15.88988 -4.32915,-4.69594 -11.77553,-4.87336 -16.63121,-0.39608 -4.28901,3.96518 -5.17987,10.34654 -2.10697,15.09246 l -1.92566,58.62547 -18.9274,17.45033 0.0846,-9.16335 14.40843,-13.28402 1.92977,-45.28012 -6.09789,5.30059 -1.27144,37.91756 -14.04514,12.94908 -0.15334,16.3038 -22.01329,20.2954 -0.60585,7.87471 -41.17331,37.9602 1.66012,5.54647 38.92603,-35.8883 -0.48624,6.32458 -47.54324,43.83304 0.42726,-9.19507 c 4.12618,-4.5536 4.22145,-11.37186 0.22003,-15.76756 -4.32912,-4.69591 -11.77565,-4.87325 -16.63121,-0.39608 -0.78864,0.73254 -1.47797,1.5647 -2.04935,2.47387 l -80.6594,74.36485 -1.13551,46.39162 c -10.686433,-0.26053 -21.509017,-0.18587 -29.696504,-0.52377 -3.7808,-0.15607 -10.023158,-5.96611 -9.843215,-9.36826 0.57101,-10.79505 4.055403,-53.3652 4.055403,-53.3652 l 277.045196,-257.16846 10.21212,12.17722 -0.11013,-11.07456 -4.93035,-5.82024 10.05104,-9.42075 -2.76386,55.61003 -10.90037,10.04973 -1.22717,22.69989 4.9495,-4.86343 0.98777,-15.10196 12.44978,-11.47822 3.27066,-63.25792 4.62828,-4.33878 -3.03308,69.66167 -12.5503,11.57089 -0.84563,7.85667 19.20024,-17.70188 3.8126,-77.55834 4.61234,-4.32149 -2.35398,53.6515 6.43163,-5.69063 2.12256,-53.77285 61.3235,-57.47566 c 0,0 0.14739,-4.56494 4.65027,-9.17011 4.50282,-4.60512 9.97923,-4.55416 9.97923,-4.55416 l 32.52779,-30.47551 c 3.31324,-2.54721 3.43282,-3.54398 8.78476,-1.3144 l 44.03022,-41.70194 z m 14.56649,15.72849 -44.89101,41.38779 3.77974,4.09966 44.89101,-41.38778 z m 7.66009,8.30847 -56.64579,52.22524 -10.8952,-0.56264 -12.68647,11.68828 -0.75718,26.51176 0.0382,0.0127 -22.33063,20.58798 c -4.41397,-2.48276 -10.02939,-1.76737 -13.8717,1.76715 -1.85774,1.72638 -3.13667,3.97895 -3.65172,6.43241 l -26.77781,24.68811 -0.19382,7.80297 27.64082,-25.48377 c 0.4947,1.16541 1.18007,2.23584 2.02895,3.16885 4.32923,4.69602 11.77554,4.87337 16.63122,0.39609 0.39718,-0.44698 0.76114,-0.92197 1.08882,-1.42093 l 0.16018,0.17374 13.73496,-12.6631 13.83583,0.78433 3.39429,-2.7814 -2.69061,-3.28142 -14.71211,-2.14681 -11.14736,10.27744 c -0.26523,-1.50531 -0.82617,-2.93414 -1.651,-4.20537 l 24.52765,-22.61355 0.84473,-25.22965 9.47224,-8.5099 9.68533,0.60751 58.70783,-54.12635 z m 29.58124,32.08512 -47.70119,43.97866 c -0.50632,7.82711 -1.0285,15.6525 -1.47735,23.48312 19.99724,-18.57713 40.10665,-37.03404 60.17487,-55.53467 l -3.77973,-4.09967 -51.3672,47.35858 0.22783,-7.10912 47.70119,-43.97866 z m -20.10281,-10.92709 c 1.46084,1.5838 1.36123,4.05196 -0.22246,5.51288 -1.58435,1.46136 -4.05354,1.3611 -5.5142,-0.22389 -1.46006,-1.58452 -1.35922,-4.05263 0.22522,-5.51277 1.58394,-1.45952 4.05102,-1.35937 5.51144,0.22378 z m -64.41991,12.37711 c -3.25368,-3.53032 -8.85091,-3.66413 -12.50097,-0.29887 -2.20762,2.03942 -3.28305,5.01102 -2.86616,7.91839 l -21.11868,19.47061 3.77842,4.09823 20.03166,-18.46842 c 3.34192,3.02357 8.53315,2.92055 11.9588,-0.23732 3.64953,-3.36468 3.97049,-8.95324 0.71693,-12.48262 z m -3.55475,3.43143 c 1.46084,1.58379 1.36125,4.05195 -0.22246,5.51288 -1.58436,1.46137 -4.05355,1.36111 -5.51421,-0.2239 -1.46006,-1.58452 -1.35922,-4.05262 0.22522,-5.51277 1.58397,-1.45954 4.05102,-1.35936 5.51145,0.22379 z m 8.73604,51.32218 c -4.32922,-4.69601 -11.77553,-4.87335 -16.63121,-0.39608 -2.42717,2.24864 -3.84424,5.36945 -3.91468,8.61943 l -11.73325,10.8176 7.57797,0.59519 5.75103,-5.30223 c 0.38922,0.67241 0.84664,1.30177 1.36536,1.87857 4.32923,4.69602 11.77552,4.87336 16.63121,0.39609 4.8562,-4.47671 5.28314,-11.91287 0.95357,-16.60857 z m -4.72874,4.56693 c 1.94334,2.10725 1.81062,5.39084 -0.29642,7.33438 -2.1078,1.94387 -5.39245,1.8105 -7.33571,-0.29785 -1.94256,-2.10796 -1.80862,-5.39153 0.29917,-7.33428 2.10742,-1.94203 5.38993,-1.80875 7.33296,0.29775 z m -34.89124,-27.12574 c -4.32923,-4.69602 -11.77555,-4.87334 -16.63121,-0.39609 -3.62141,3.35513 -4.87641,8.5171 -3.15934,12.99439 l -58.15786,53.6193 0.25491,0.19003 -2.53024,48.63108 5.73739,-5.40922 1.87528,-41.89592 55.42954,-51.10389 c 4.40649,4.30825 11.5438,4.29894 16.22795,-0.0211 4.85618,-4.47668 5.28313,-11.91289 0.95358,-16.60856 z m -4.72875,4.56693 c 1.94335,2.10724 1.81062,5.39086 -0.29641,7.33439 -2.1078,1.94386 -5.39246,1.81049 -7.33572,-0.29786 -1.94255,-2.10797 -1.80861,-5.39153 0.29918,-7.33428 2.10739,-1.942 5.38993,-1.80874 7.33295,0.29775 z m 29.49322,40.75488 -59.02518,54.41894 3.52687,3.8254 59.02517,-54.41894 z m -40.63052,6.14175 c 1.94332,2.10722 1.81063,5.39085 -0.29643,7.33439 -2.10778,1.94383 -5.39246,1.81046 -7.33571,-0.29786 -1.94255,-2.10797 -1.80859,-5.39154 0.29918,-7.33428 2.10741,-1.94204 5.38993,-1.80875 7.33296,0.29775 z m -20.28752,32.12251 c -3.25418,-3.53085 -8.85249,-3.66409 -12.5024,-0.29755 -3.65011,3.36522 -3.97052,8.95487 -0.71561,12.48406 0.75842,0.82237 1.67389,1.48563 2.69615,1.95333 l -1.2268,23.74626 c -1.00546,0.40861 -1.93409,0.99382 -2.74054,1.72705 -3.65074,3.36448 -3.97244,8.95401 -0.71838,12.48394 3.25419,3.53086 8.8525,3.66409 12.50241,0.29754 3.65011,-3.36521 3.97052,-8.95486 0.71561,-12.48405 -1.15567,-1.25055 -2.66628,-2.12194 -4.34339,-2.50676 l 1.22858,-22.66666 c 1.63085,-0.33431 3.15031,-1.1149 4.386,-2.25321 3.65074,-3.36448 3.97243,-8.95401 0.71837,-12.48394 z m -3.55619,3.43275 c 1.46085,1.5838 1.36126,4.05195 -0.22245,5.51289 -1.58436,1.46137 -4.05355,1.36111 -5.51422,-0.2239 -1.46005,-1.58452 -1.35921,-4.05263 0.22523,-5.51277 1.58396,-1.45954 4.05102,-1.35937 5.51144,0.22378 z m -1.9868,39.9107 c 1.46085,1.5838 1.36125,4.05195 -0.22247,5.51288 -1.58435,1.46136 -4.05353,1.3611 -5.51419,-0.22389 -1.46006,-1.58453 -1.35922,-4.05262 0.22521,-5.51277 1.58397,-1.45954 4.05103,-1.35937 5.51145,0.22378 z M 353.7921,625.11047 c -2.98695,-3.24055 -8.13292,-3.35605 -11.49362,-0.25797 -1.76991,1.63208 -2.7668,3.92639 -2.73071,6.28459 l -22.3694,20.62373 c 3.64154,-0.0714 5.62193,1.89382 5.62193,1.89382 l 18.79674,-17.32986 0.005,0.006 c 2.98744,3.24109 8.1345,3.35602 11.49506,0.25665 3.36035,-3.09847 3.66243,-8.23687 0.6747,-11.4767 z m -3.27143,3.15958 c 1.34094,1.45418 1.24571,3.72326 -0.2127,5.0682 -1.45859,1.34587 -3.729,1.2574 -5.0702,-0.19757 -1.34145,-1.45475 -1.24555,-3.72486 0.21414,-5.06953 1.45875,-1.34456 3.72808,-1.25552 5.06876,0.1989 z m 1.71712,17.0446 c -3.25399,-3.52899 -8.85017,-3.66217 -12.49965,-0.29744 -3.65075,3.36448 -3.97243,8.95401 -0.71837,12.48394 0.0137,0.0139 0.0272,0.0281 0.0412,0.0417 l -1.32495,28.51225 c 0,0 3.83519,2.69869 4.29866,6.39999 0.40568,3.23982 1.39126,-24.95834 1.64224,-32.37783 2.78849,0.5368 5.71043,-0.31185 7.84531,-2.27862 3.65011,-3.36521 3.97052,-8.95486 0.71561,-12.48405 z m -3.55344,3.43286 c 1.46084,1.5838 1.36125,4.05194 -0.22246,5.51287 -1.58436,1.46136 -4.05353,1.3611 -5.5142,-0.22389 -1.46005,-1.58453 -1.35922,-4.05262 0.22522,-5.51277 1.58396,-1.45954 4.05102,-1.35936 5.51144,0.22379 z m -29.8768,12.12933 c 1.94326,2.10716 1.81054,5.39091 -0.29643,7.33438 -2.10779,1.94386 -5.39251,1.81041 -7.33571,-0.29785 -1.94255,-2.10797 -1.80861,-5.39154 0.29918,-7.33428 2.10734,-1.94196 5.38993,-1.80875 7.33296,0.29775 z m 16.52412,30.98133 c 1.46084,1.58379 1.36132,4.05202 -0.22246,5.51287 -1.58436,1.46136 -4.05355,1.36111 -5.51421,-0.22389 -1.46005,-1.58452 -1.35922,-4.05263 0.22522,-5.51277 1.58397,-1.45954 4.05103,-1.35937 5.51145,0.22379 z m -17.23786,-16.29673 -2.69422,58.21831 -47.31109,43.49414 -0.2283,0.006 -0.0129,0.21648 -0.0445,0.041 0.0401,0.0347 -1.18459,20.93654 -51.47502,47.29062 -1.1446,13.00708 c -1.78361,1.61504 -5.35027,4.84923 -7.05446,6.39241 l 1.13741,-20.86384 51.89707,-47.84709 -0.28596,-0.31016 1.58301,-21.15245 47.04352,-43.37231 2.65855,-55.97782 c 2.29025,0.68635 4.76058,0.64672 7.07597,-0.11353 z m -20.7422,-4.57555 -220.178829,202.99639 -0.588557,34.6819 c -2.475307,4.44934 -1.893958,9.88193 1.446928,13.52139 4.329226,4.69597 11.775444,4.87337 16.631149,0.39615 4.856186,-4.4767 5.283127,-11.91287 0.95358,-16.60859 -0.999109,-1.06892 -2.197901,-1.93339 -3.534564,-2.54582 l 0.406318,-7.6934 11.917845,0.94277 0.7467,-11.85391 144.54098,-133.2612 c 0.37736,1.04833 0.95488,2.00825 1.7014,2.82797 0.3622,0.39157 0.76089,0.74785 1.19109,1.06428 l -57.87641,53.35982 c 5.37426,-2.5717 8.74371,-0.98433 8.74372,-0.98433 l 55.03465,-50.73982 c 2.00339,-0.17576 3.91023,-1.02334 5.40803,-2.40384 3.64952,-3.36468 3.97049,-8.95324 0.71694,-12.48262 -3.25369,-3.53031 -8.85092,-3.66412 -12.50097,-0.29887 -0.51044,0.48013 -0.96438,1.0167 -1.35312,1.59818 l -151.773913,139.92969 -0.05626,7.47958 -6.167693,-0.33336 0.472328,-8.94438 162.734629,-150.03506 21.4908,0.91269 5.35503,-4.57053 -28.27763,-2.09913 -166.762502,153.74859 -1.400789,22.78825 c -1.439251,0.10496 -2.855915,0.47194 -4.179488,1.08255 l 0.587392,-27.0964 218.098087,-201.55354 z m -9.3981,18.83659 -6.04981,5.41035 -0.60696,8.95692 c -3.12349,-1.16395 -6.69848,-0.43391 -9.21974,1.8828 -3.65073,3.36447 -3.97243,8.95401 -0.71836,12.48394 3.25417,3.53084 8.85249,3.66408 12.5024,0.29755 1.5741,-1.45262 2.59403,-3.40163 2.87695,-5.49495 l 0.0381,0.0473 z m -6.93029,19.98037 c 1.46084,1.58379 1.36125,4.05194 -0.22247,5.51287 -1.58435,1.46136 -4.05353,1.3611 -5.51419,-0.22389 -1.46006,-1.58453 -1.35922,-4.05262 0.22521,-5.51277 1.58397,-1.45954 4.05103,-1.35937 5.51145,0.22379 z m -19.9654,35.83161 c 1.46136,1.58436 1.3611,4.05354 -0.22389,5.5142 -1.58453,1.46005 -4.05262,1.35922 -5.51277,-0.22522 -0.92814,-1.02146 -1.2479,-2.45711 -0.8405,-3.77576 0.25715,-0.62262 0.54056,-1.25182 1.49303,-2.04862 1.59187,-1.11137 3.75868,-0.88318 5.08413,0.5354 z m -57.57506,71.74157 c 1.94323,2.10712 1.81051,5.39095 -0.29642,7.33438 -2.1078,1.94386 -5.39255,1.81038 -7.33571,-0.29785 -1.94256,-2.10797 -1.80862,-5.39154 0.29918,-7.33428 2.10729,-1.94193 5.38993,-1.80875 7.33295,0.29775 z m -1.99372,14.92427 -0.10137,37.96785 c -4.16532,3.7713 -9.24066,8.37033 -15.66143,14.18687 l -14.02392,-1.19004 -26.58541,24.51073 -0.20309,13.64795 c -0.80176,0.72559 -5.01592,4.54465 -5.28648,4.78892 l 0.47783,-21.80979 31.07271,-28.64784 10.1273,0.71804 0.16152,0.17518 0.16373,-0.15095 0.0676,0.004 0.014,-0.0793 12.60489,-11.62123 1.61078,-32.55604 c 1.80776,0.46182 3.71471,0.48095 5.56111,0.0558 z m -13.6208,-8.80344 c 0.36774,1.89296 1.20345,3.64979 2.4324,5.11341 l -1.29726,34.26472 -9.14857,8.43462 -10.70177,-0.76488 -34.70002,31.99208 -0.74357,29.0362 c -0.10796,0.0968 -3.66504,3.49763 -3.66504,3.49763 0,0 -2.54477,0.2975 -4.50469,0.21789 l 1.29342,-31.70106 45.58455,-42.0272 14.08568,1.03214 0.0877,-4.27021 -16.6705,-1.53936 -47.71122,43.9879 -1.36468,34.55885 c -2.3602,-0.0281 -4.97046,0.1156 -7.62911,0.0667 l 0.53551,-43.5662 z m -8.73438,66.9298 c -11.85635,10.74133 -20.49142,18.56311 -27.55605,24.96198 l -1.24819,-5.34182 21.84815,-20.14315 z m -88.246671,20.11336 c 1.943341,2.10725 1.810659,5.39085 -0.296459,7.33442 -2.107803,1.94385 -5.392443,1.81048 -7.335704,-0.29786 -1.942533,-2.10799 -1.808586,-5.39155 0.299171,-7.33428 2.107411,-1.94206 5.389931,-1.80877 7.332992,0.29772 z"
       sodipodi:nodetypes="cczzcccsscccccccccccccccccccccccccccccccccccccccccccccccccccccccccccccccccccccccccccscccccccccccccccccccccccccccccccccccccccccccccssccccccccccccccccccccccccsccccccccccccccccccccccccccccccccccccccccccccccccsssssccccccccsssssccccccccccccccscccccccccsscccccccccccccccscsccccccccccssssssssssscccccscsscscccsscccsccssscssscscccscssscccccccccccccccccccccccccccccccccccccccccccccccccccccscccccccscssscccccccccccccccccccccccccccsccccccccccccccccccccccccccccccc" /><path
       id="path14"
       style="display:inline;fill:#000000;fill-opacity:1;stroke:none;stroke-opacity:1"
       d="M 783.35352 59.789062 C 717.5678 58.628939 658.75738 85.778291 630.33008 110.38086 C 579.39325 154.46442 557.79742 238.60023 587.60352 287.14648 C 609.28215 322.45525 603.32694 346.56033 599.50586 355.74219 L 608.40039 365.39062 C 612.57165 357.19633 622.88515 331.4114 605.67188 300.92383 C 600.87882 292.43455 573.51177 241.82948 593.50781 183.27148 L 590.19531 258.07812 L 618.59375 288.88086 L 628.35156 289.92578 L 638.58984 301.03125 L 640.24023 293.5918 L 631.75586 284.39062 L 621.34961 282.63867 L 596.17773 255.33594 L 600.46484 166.57617 C 601.48692 164.50824 602.58587 162.43728 603.74023 160.35938 L 599.20117 253.42969 L 619.30273 275.23047 L 637.52734 276.43945 L 653.17188 293.40625 L 653.55859 304.05078 L 659.77734 301.78125 L 660.41211 292.0293 L 640.21875 270.12695 L 621.97852 268.9043 L 605.73633 251.28711 L 610.87695 148.66016 C 617.85058 138.38355 626.59117 128.06791 637.44531 117.88086 C 664.76025 92.244686 728.52151 65.766321 805.85156 75.234375 L 805.75 82.576172 L 730.69141 79.564453 C 727.67513 77.383053 723.54184 77.622261 720.79883 80.138672 C 717.61587 83.072984 717.41387 88.031403 720.34766 91.214844 C 723.28248 94.398351 728.24251 94.601109 731.42578 91.666016 C 732.99008 90.214264 733.89513 88.186579 733.93164 86.052734 L 811.39648 88.699219 L 837.50586 117.01758 L 837.09375 127.82812 L 843.11133 128.23633 L 843.36719 117.27734 L 849.13672 117.36523 L 873.4668 94.730469 C 875.26963 95.659513 877.03909 96.579464 878.90039 97.591797 L 852.41406 122.20898 L 852.42383 131.98633 C 848.82722 130.57091 844.73882 131.33232 841.89258 133.94727 C 837.79188 137.72823 837.53183 144.11777 841.3125 148.21875 C 845.09348 152.31946 851.48301 152.57949 855.58398 148.79883 C 858.18025 146.39564 859.3305 142.80847 858.61523 139.34375 L 858.50391 125.10547 L 884.61914 100.81836 C 886.22616 101.73976 887.7946 102.59407 889.41406 103.56445 L 867.54492 123.90625 L 865.90039 151.92578 L 852.57617 164.40039 L 851.82617 171.02539 C 849.81372 170.98569 847.86364 171.72296 846.37891 173.08203 C 843.1954 176.01686 842.99264 180.97689 845.92773 184.16016 C 848.86256 187.34367 853.82259 187.54447 857.00586 184.60938 C 860.18938 181.67454 860.39213 176.71451 857.45703 173.53125 C 857.16854 173.22292 856.85386 172.9376 856.51953 172.67969 L 856.82227 168.99414 L 871.78125 154.99219 C 872.24249 145.87004 872.70885 136.44857 873.16992 127.22852 L 894.88672 107.01953 C 903.50246 112.45157 911.85291 118.41148 919.25391 124.66406 L 916.31055 177.96875 L 864.41211 226.0293 L 862.84375 256.83789 L 862.91602 268.12109 C 869.01602 268.76091 876.14623 271.71359 885.17578 280.31445 C 892.08883 286.8993 902.25741 297.96237 908.95508 314.78906 C 921.63525 346.64573 915.23019 361.2009 887.57617 381.60156 C 859.92218 402.00221 817.32486 399.53038 816.78906 322.10547 C 816.51113 281.94648 837.45396 271.69796 850.35156 269.22656 C 851.82577 268.94406 853.35392 268.67229 854.91406 268.43555 L 855.65039 256.86914 L 857.25 224.70312 L 897.28516 187.68555 C 901.57257 187.01564 905.56545 185.09327 908.76172 182.1582 C 917.68884 173.92728 918.25386 160.01742 910.02344 151.08984 C 901.79252 142.16273 887.88265 141.59771 878.95508 149.82812 C 871.91887 156.33265 869.90582 166.64483 873.97852 175.31836 L 783.19922 259.21875 C 777.239 260.05729 770.3301 261.14741 763.14258 262.4707 L 720.47461 261.84961 L 720.72656 267.375 L 738.46094 268.0957 C 732.4881 269.84833 727.24571 271.80205 723.44531 273.95508 C 718.66309 276.66436 715.07778 279.10394 712.36719 281.32422 C 716.39893 276.18782 716.11552 268.88625 711.69531 264.08008 C 706.70801 258.67067 698.2786 258.3272 692.86914 263.31445 C 692.4964 263.66762 692.14558 264.04339 691.81641 264.4375 L 680.66016 263.82617 L 638.83008 218.45508 L 641.5625 183.78516 C 643.07208 183.53801 644.47558 182.85378 645.60156 181.81836 C 648.78378 178.88325 648.98537 173.92488 646.05078 170.74219 C 643.11646 167.55923 638.15805 167.35723 634.97461 170.29102 C 631.7911 173.22584 631.58834 178.18587 634.52344 181.36914 C 635.02195 181.90903 635.59407 182.37524 636.22266 182.75586 L 633.41406 221.8125 L 677.71875 269.86914 L 688.88672 270.40234 C 688.00532 274.60467 689.20404 278.97546 692.10547 282.14062 C 693.05488 283.16007 694.1578 284.02362 695.375 284.70117 L 692.93945 341.05664 L 665.91992 365.80664 L 665.43555 375.13477 L 699.14258 343.84766 L 702.46289 286.41016 C 704.85428 286.3049 707.17325 285.55748 709.17578 284.24609 C 704.04202 289.55041 704.00085 293.47647 703.69336 296.80664 C 703.24449 301.66759 705.42096 317.21604 718.94336 322.82812 C 718.69592 325.5516 719.55704 328.36618 721.55664 330.53516 C 721.67262 330.66094 721.79913 330.76824 721.91992 330.88672 L 720.19336 339.125 L 707.73047 345.625 L 644.22852 404.25 L 648.46875 408.84961 L 700.42969 360.90234 L 749.15234 362.43555 C 749.15234 362.43555 760.69859 363.72468 767.4668 360.13477 C 774.23504 356.5449 780.30078 351.06055 780.30078 351.06055 L 802.15234 328.95312 L 812.26172 252.9082 L 884.6875 185.92969 C 885.90826 186.50243 887.17948 186.96087 888.48438 187.30078 L 814.69727 255.52539 L 810.06055 293.02539 C 809.72229 294.32577 809.44902 295.63847 809.26367 296.96289 C 808.80718 300.22497 808.41463 304.2063 808.13086 308.61523 L 808.10938 308.78516 L 808.12109 308.75391 C 808.08639 309.29855 808.05248 309.84228 808.02148 310.40039 L 807.9668 310.35742 L 803.33789 379.41406 C 801.49598 379.43506 799.7255 380.13648 798.36914 381.38281 C 795.33766 384.17824 795.14653 388.90159 797.94141 391.93359 C 800.73655 394.96636 805.46157 395.15866 808.49414 392.36328 C 811.52619 389.56733 811.7161 384.84236 808.91992 381.81055 C 808.68201 381.55259 808.428 381.31186 808.15625 381.08984 L 809.9082 351.64844 C 811.29553 360.01109 813.40787 367.92876 816.55273 374.42383 L 815.16016 400.00977 C 814.73788 400.29995 814.33567 400.61948 813.95898 400.9668 C 809.58673 404.99689 809.3095 411.80961 813.33984 416.18164 C 817.37045 420.55447 824.18478 420.83047 828.55664 416.79883 C 832.91085 412.7817 833.19987 406.00165 829.20508 401.62695 L 829.63672 392.77344 C 832.29397 395.5302 834.92692 397.78029 837.51172 399.56641 L 835.74219 429.99609 C 833.74799 429.46574 831.62411 429.78522 829.87305 430.87695 L 818.5957 430.73242 L 782.67188 391.76953 L 782.63477 391.54297 L 707.75391 387.74414 L 665.23047 427.0293 L 669.47461 431.63477 L 710.41211 394.00195 L 779.85547 397.94727 L 813.99414 434.97461 L 826.51953 435.65625 C 826.25452 436.89211 826.30581 438.17499 826.67188 439.38477 L 810.86719 438.68359 L 775.99414 400.85742 L 726.23047 398.68555 C 726.23047 398.68555 727.59708 400.1289 728.29297 401.27344 C 729.05041 402.51926 729.68359 404.56445 729.68359 404.56445 L 773.02344 406.86719 L 806.98438 443.70312 L 831.61133 444.32617 C 834.14779 445.11181 836.91014 444.48994 838.86719 442.69531 C 841.61044 440.16478 842.06413 435.99712 839.92969 432.93555 L 842.03516 402.2832 C 843.55486 403.06331 845.05139 403.70549 846.51953 404.21875 L 846.49805 404.22266 L 846.54688 404.22852 C 851.53501 405.96761 856.16504 406.24737 860.2793 405.85938 L 890.9043 409.49805 L 922.10938 380.51562 L 917.85742 375.92578 L 887.57617 404.05469 L 874.00781 402.11523 C 875.08699 401.67094 875.98573 401.30275 876.58789 401.14844 C 876.58789 401.14844 927.44697 375.71241 925.22656 343.2207 C 924.29924 329.6511 920.8591 315.84084 915.15625 303.24023 L 941.4668 278.77344 L 957.56055 279.70898 L 957.71094 274.86328 L 937.95898 273.49805 L 912.27344 297.375 C 911.40057 295.71719 910.48227 294.09089 909.52734 292.49023 L 959.06445 246.58008 L 958.82422 246.32227 L 961.69922 179.73633 C 963.07723 182.30261 964.43689 184.85771 965.63867 187.32031 L 961.10938 283.37109 L 942.13672 281.50586 L 930.42773 292.51562 L 926.32617 382.26758 L 890.63477 415.38086 L 862.38867 411.79102 C 862.36617 411.76212 862.34361 411.73318 862.32031 411.70508 C 858.468 407.52601 851.95774 407.26225 847.7793 411.11523 C 843.60152 414.96783 843.33894 421.4764 847.19141 425.6543 C 851.04348 429.83151 857.55046 430.09727 861.72852 426.24609 C 864.05841 424.08442 865.26055 420.96685 864.98242 417.80078 L 893.58984 421.16797 L 931.19531 386.28711 L 936.01367 295.08984 L 944.23438 287.96484 L 966.70117 288.77344 L 970.92969 199.01953 C 972.20837 202.11285 973.28773 205.00303 974.2832 207.80469 L 967.54883 337.33203 C 964.94242 337.30883 962.42512 338.27564 960.50391 340.03711 C 957.13105 343.15084 956.22814 348.12193 958.29102 352.22266 L 958.28125 352.21875 L 957.19336 380.15234 L 950.30664 384.60352 L 951.61523 352.08398 L 946.24609 351.96289 L 944.36914 393.01562 L 902.21094 432.0957 L 855.45312 431.28125 L 854.5918 451.38281 C 852.59059 451.27634 850.63044 451.97874 849.15234 453.33203 C 849.04034 453.44345 848.93275 453.55936 848.82812 453.67773 L 805.48242 450.58789 L 768.11523 410.05859 L 759.45898 409.90039 L 801.71094 455.72852 L 846.76758 458.62305 C 846.71108 460.56405 847.41337 462.45253 848.72461 463.88477 C 851.52006 466.91625 856.24338 467.10737 859.27539 464.3125 C 861.907 461.87401 862.43248 457.90922 860.52734 454.86914 L 861.03125 437.14648 L 905.12695 437.91992 L 949.82812 396.49414 L 950.10156 389.70312 L 961.85742 382.12891 L 963.14453 356.91211 C 966.45093 358.45435 970.32739 358.13005 973.33203 356.06055 C 968.68441 370.64853 962.93797 383.72822 956.66602 395.17578 L 906.53711 441.58984 L 888.93555 441.92188 C 885.0016 438.30518 878.95381 438.29987 875.01562 441.91211 C 870.83711 445.76392 870.57215 452.27451 874.42383 456.45312 C 878.27615 460.6322 884.78639 460.89596 888.96484 457.04297 C 891.4941 454.70429 892.68705 451.25665 892.14062 447.85547 L 909.45508 447.41016 L 943.32422 416.05469 C 938.35868 422.67616 933.31613 428.39803 928.39648 432.85352 C 840.02186 512.89018 754.38733 457.13471 743.37891 449.68164 C 741.68509 448.53487 740.01335 447.55908 738.34375 446.58984 L 752.40039 447.28906 C 752.00909 449.6695 752.71295 452.06849 754.31445 453.81445 C 757.25098 456.99992 762.28948 457.1313 765.57031 454.10742 C 768.85149 451.08278 769.13077 446.04699 766.19336 442.86133 C 763.69306 440.16415 759.59953 439.61796 756.3457 441.54688 L 724.05469 440.04492 C 712.30118 436.14288 702.00644 436.13338 693.97852 437.22266 L 705.98438 426.04102 L 744.86914 427.97852 C 745.25037 429.28441 745.92564 430.48638 746.84375 431.49023 C 750.17407 435.10297 755.80378 435.33083 759.41602 432 C 760.02593 431.43496 760.55414 430.78761 760.98438 430.07617 L 792.02148 463.74023 L 834.76953 468.33984 L 835.82227 460.70703 L 832.54102 460.4082 L 832.29883 462.62891 L 795.74609 458.54883 L 760.93164 420.78711 C 760.63995 420.30397 760.30159 419.84898 759.92383 419.42969 C 756.59376 415.8188 750.96733 415.59091 747.35547 418.91992 C 746.40561 419.79683 745.65879 420.86931 745.16602 422.06445 L 703.18359 420.10938 L 680.28711 441.27734 C 679.4354 441.57954 679.50527 441.59188 678.88477 441.83984 L 687.70898 451.41016 C 696.82242 448.37276 721.62266 443.90827 755.64844 468.81055 C 801.61838 502.45433 887.22686 487.74788 935.29492 440.55273 C 978.1688 398.45747 1033.8174 279.54228 968.94727 168.82617 C 960.54244 154.14631 950.98596 141.26758 940.22266 129.78516 C 929.45895 118.30247 917.48593 108.21556 904.24609 99.117188 C 864.80737 71.372968 822.82495 60.485136 783.35352 59.789062 z M 811.4082 75.876953 C 823.25537 77.582153 835.38878 80.103958 847.75977 83.646484 C 848.60132 83.887475 849.77529 84.365282 850.73242 84.6875 C 849.48934 85.006576 848.34232 85.626884 847.39453 86.492188 C 844.21157 89.426501 844.00957 94.384919 846.94336 97.568359 C 849.87819 100.75187 854.83822 100.95268 858.02148 98.017578 C 860.82124 95.428152 861.35289 91.20062 859.2793 88 C 861.88913 89.116285 864.57252 90.312672 867.50977 91.730469 L 846.61914 111.17383 L 839.69336 110.1582 L 836.23438 106.4082 C 837.62298 106.12317 838.90787 105.46731 839.95312 104.50977 C 843.13664 101.57494 843.33939 96.614906 840.4043 93.431641 C 837.46919 90.249416 832.51083 90.047845 829.32812 92.982422 C 828.28932 93.946967 827.52948 95.174231 827.13281 96.535156 L 811.10156 79.146484 L 811.4082 75.876953 z M 726.26172 82.203125 C 727.20814 82.241552 728.13922 82.641214 728.83203 83.392578 C 730.21879 84.8953 730.12438 87.238862 728.62109 88.625 C 727.11765 90.010962 724.77597 89.914185 723.39062 88.410156 C 722.00519 86.907267 722.09883 84.565306 723.60156 83.179688 C 724.35301 82.486966 725.3153 82.164698 726.26172 82.203125 z M 705.08594 86.650391 C 703.08148 86.569252 701.04643 87.253414 699.45508 88.720703 C 696.27213 91.655013 696.07013 96.61344 699.00391 99.796875 C 699.52456 100.36012 700.12583 100.8438 700.78711 101.23242 L 700.19336 104.88281 L 669.61133 133.28711 L 670.0957 120.26758 C 671.26228 119.93436 672.33685 119.33408 673.23242 118.51562 C 676.41593 115.5808 676.61675 110.62077 673.68164 107.4375 C 670.74681 104.25398 665.78678 104.05319 662.60352 106.98828 C 659.42 109.92311 659.2192 114.88313 662.1543 118.06641 C 662.70114 118.65364 663.33469 119.15196 664.0332 119.54688 L 663.26367 153.21484 L 668.88867 148.02734 L 669.44531 141.95117 L 706.46484 107.88867 L 707.32227 101.88477 C 708.34564 101.53466 709.2848 100.97706 710.08203 100.24609 C 713.26554 97.311267 713.46635 92.351238 710.53125 89.167969 C 709.0637 87.57686 707.0904 86.731529 705.08594 86.650391 z M 852.85742 88.556641 C 853.80384 88.595068 854.73688 88.99473 855.42969 89.746094 C 856.81646 91.248815 856.72204 93.590424 855.21875 94.976562 C 853.71529 96.362524 851.37168 96.2677 849.98633 94.763672 C 848.60089 93.260782 848.69649 90.918823 850.19922 89.533203 C 850.95066 88.840482 851.911 88.518213 852.85742 88.556641 z M 704.91797 90.785156 C 705.86439 90.823585 706.79743 91.221296 707.49023 91.972656 C 708.87698 93.475374 708.78259 95.818943 707.2793 97.205078 C 705.77585 98.591037 703.43222 98.494253 702.04688 96.990234 C 700.66145 95.487352 700.75704 93.147338 702.25977 91.761719 C 703.01121 91.068997 703.97155 90.746728 704.91797 90.785156 z M 734.66211 93.445312 L 734.6582 98.619141 L 807.55664 101.59766 L 817.22461 112.22461 L 815.11523 136.9375 L 835.76172 159.33203 L 834.54297 185.25781 C 833.06698 185.5189 831.69578 186.1969 830.59375 187.21289 C 827.41024 190.14772 827.20942 195.10775 830.14453 198.29102 C 833.07935 201.47452 838.03939 201.67728 841.22266 198.74219 C 844.40616 195.80736 844.60696 190.84733 841.67188 187.66406 C 841.27241 187.24036 840.82694 186.86212 840.34375 186.53711 L 841.8457 156.69727 L 821.2168 134.32227 L 822.99609 109.25586 L 811.04102 96.291016 L 734.66211 93.445312 z M 834.79102 95.046875 C 835.73743 95.085303 836.66852 95.484964 837.36133 96.236328 C 838.7481 97.73905 838.65368 100.08066 837.15039 101.4668 C 835.64693 102.85277 833.30332 102.75793 831.91797 101.25391 C 830.53253 99.751018 830.62813 97.409056 832.13086 96.023438 C 832.8823 95.330716 833.8446 95.008447 834.79102 95.046875 z M 685.64648 96.742188 C 684.16701 96.703879 682.65602 97.227898 681.46484 98.326172 C 679.08239 100.5226 678.88072 104.17893 681.01367 106.49219 C 683.14639 108.80567 686.8071 108.90163 689.18945 106.70508 C 691.57192 104.50864 691.77357 100.85232 689.64062 98.539062 C 688.57426 97.382329 687.12596 96.780496 685.64648 96.742188 z M 685.47852 99.791016 C 686.17687 99.809115 686.85985 100.09278 687.36328 100.63867 C 688.36985 101.73074 688.27471 103.4552 687.15039 104.49219 C 686.02566 105.52874 684.29787 105.48438 683.29102 104.39258 C 682.28445 103.30052 682.37959 101.57604 683.50391 100.53906 C 684.06627 100.02079 684.78016 99.772916 685.47852 99.791016 z M 737.48242 102.12891 C 734.18766 101.99513 730.8425 103.11959 728.22656 105.53125 C 722.99495 110.35486 722.66301 118.50445 727.48633 123.73633 C 732.30993 128.96794 740.46148 129.29989 745.69336 124.47656 C 746.32111 123.88324 746.88804 123.22814 747.38477 122.52148 L 804.98828 123.63086 L 805.30664 118.23242 L 749.76953 116.29688 C 750.14224 112.63082 748.92874 108.98118 746.43359 106.26953 C 744.0218 103.65372 740.77719 102.26269 737.48242 102.12891 z M 749.54883 103.39648 L 751.23828 110.24805 L 804.4668 112.45117 L 807.80273 116.06836 L 805.93359 142.04883 L 828.0625 166.05078 L 832.66211 161.80859 L 812.02344 139.28125 L 812.8125 112.27344 L 807.20898 106.19727 L 749.54883 103.39648 z M 737.20703 108.92383 C 738.7628 108.987 740.29484 109.64362 741.43359 110.87891 C 743.71137 113.3492 743.55455 117.19906 741.08398 119.47656 C 738.61369 121.75435 734.76383 121.59751 732.48633 119.12695 C 730.20854 116.65665 730.36538 112.80875 732.83594 110.53125 C 734.07109 109.39236 735.65127 108.86066 737.20703 108.92383 z M 668.06836 109.05273 C 669.01478 109.09116 669.94586 109.49082 670.63867 110.24219 C 672.02412 111.74508 671.92851 114.08704 670.42578 115.47266 C 668.92289 116.8581 666.58289 116.76249 665.19727 115.25977 C 663.81183 113.75687 663.90547 111.41687 665.4082 110.03125 C 666.15965 109.33853 667.12194 109.01431 668.06836 109.05273 z M 706.18555 113.43945 L 674.82812 142.56055 L 674.88281 154.79102 L 674.97266 154.76953 C 667.95276 163.1781 663.64454 170.18163 663.64453 170.18164 C 661.79279 175.5521 642.03226 200.66113 681.57812 229.67188 C 687.97256 234.3628 696.63994 237.79728 706.07227 240.28125 L 684.2793 238.64844 L 655.27539 207.18945 L 657.39062 164.16992 C 657.62714 164.00204 657.85385 163.82196 658.07031 163.62891 C 661.25382 160.69408 661.45463 155.73405 658.51953 152.55078 C 655.58471 149.36726 650.62466 149.16647 647.44141 152.10156 C 644.25918 155.03667 644.05955 159.99503 646.99414 163.17773 C 648.25206 164.53917 649.95137 165.41153 651.79102 165.63867 L 649.4375 210.08789 L 681.01562 244.33789 C 681.01562 244.33789 719.59567 247.69503 738.41602 247.9043 C 757.23638 248.11356 767.79297 244.90625 767.79297 244.90625 L 767.73828 244.90234 C 793.18842 239.18002 815.04158 206.22924 802.95117 179.37695 C 799.70431 172.16579 795.24146 165.55155 789.87109 159.61133 C 773.76001 141.79065 749.47775 130.03394 725.32422 126.39844 C 716.05308 125.003 707.01258 128.04966 698.83203 133.08203 C 695.46153 136.03908 692.00066 139.36855 690.01172 142.12305 C 685.21758 148.76331 686.63055 151.90061 688.24805 153.55469 C 688.65331 153.96917 689.14839 154.31751 689.71289 154.60547 C 699.18271 154.79726 695.74578 148.63038 698.66016 146.27734 C 714.32231 133.63176 728.68306 133.19992 752.34375 144.92188 C 768.57205 152.9617 778.77269 163.99185 784.77539 171.41602 C 798.60851 188.52484 795.4163 198.32524 793.00391 207.02539 C 789.49497 219.68015 777.58433 239.72425 737.58008 236.19141 C 660.45348 229.38024 661.44208 186.7215 684.01758 160.8125 C 684.10588 160.7111 684.18923 160.62412 684.27734 160.52344 C 683.36772 158.79963 681.37965 154.62928 680.95898 150.71484 L 681.68164 144.75195 L 709.13672 119.22852 L 720.82227 120.05273 L 721.08008 114.9082 L 706.18555 113.43945 z M 892.5293 117.04883 C 889.33195 116.919 886.08358 118.00742 883.54492 120.34766 C 878.46822 125.02881 878.14765 132.94025 882.82812 138.01758 C 887.509 143.09558 895.42016 143.41732 900.49805 138.73633 C 905.57531 134.05466 905.89663 126.14356 901.21484 121.06641 C 898.87427 118.52805 895.72664 117.17865 892.5293 117.04883 z M 645.93359 118.26172 C 642.52694 118.1234 639.06801 119.28566 636.36328 121.7793 C 630.95387 126.76661 630.61234 135.19406 635.59961 140.60352 C 640.58693 146.01293 649.01436 146.3564 654.42383 141.36914 C 659.83323 136.38182 660.17477 127.95244 655.1875 122.54297 C 652.69384 119.83827 649.34024 118.40004 645.93359 118.26172 z M 831.1582 123.58398 C 829.91011 123.53331 828.64326 123.95943 827.65234 124.87305 C 825.67046 126.70023 825.54582 129.78769 827.37305 131.76953 C 829.20022 133.75141 832.28769 133.87606 834.26953 132.04883 C 836.25142 130.22165 836.37605 127.13418 834.54883 125.15234 C 833.63524 124.1614 832.4063 123.63466 831.1582 123.58398 z M 892.26172 123.64258 C 893.77153 123.70388 895.25619 124.34029 896.36133 125.53906 C 898.57309 127.93626 898.42351 131.67399 896.02539 133.88477 C 893.62747 136.09574 889.88968 135.94182 887.67969 133.54297 C 885.46923 131.1456 885.62198 127.41143 888.01953 125.20117 C 889.21821 124.09594 890.75191 123.58127 892.26172 123.64258 z M 776.38086 124.95898 L 818.24414 170.4375 L 817.01172 223.20117 L 822.79297 217.69336 L 823.92773 167.30078 L 785.2168 125.31445 L 776.38086 124.95898 z M 645.64844 125.28906 C 647.25688 125.35412 648.84197 126.03177 650.01953 127.30859 C 652.37516 129.86285 652.21315 133.84436 649.6582 136.19922 C 647.10378 138.55354 643.12388 138.39033 640.76953 135.83594 C 638.41574 133.28209 638.57776 129.30384 641.13086 126.94922 C 642.4077 125.77167 644.03999 125.224 645.64844 125.28906 z M 831.05469 126.1582 C 831.64404 126.18213 832.22294 126.43046 832.6543 126.89844 C 833.51722 127.83419 833.45938 129.29353 832.52344 130.15625 C 831.58768 131.01917 830.12833 130.95938 829.26562 130.02344 C 828.40271 129.08769 828.46249 127.6303 829.39844 126.76758 C 829.86631 126.33612 830.46534 126.13427 831.05469 126.1582 z M 773.75586 126.49219 C 771.7511 126.41079 769.71469 127.09496 768.12305 128.5625 C 764.94083 131.49761 764.73925 136.45597 767.67383 139.63867 C 770.2098 142.37646 774.32443 142.94819 777.50977 141.00391 L 808.44922 174.56055 L 805.54492 223.82617 C 805.54492 223.82617 788.62725 246.97036 759.9668 250.5332 C 745.35159 252.35006 721.05536 251.7127 680.99219 249.66406 L 647.20312 213.7832 L 648.45898 197.33008 L 643.04492 191.37695 L 640.85156 215.32812 L 678.08789 255.71484 C 678.12949 255.98076 678.24383 256.17217 678.52344 256.1875 C 691.94159 256.92329 732.75187 259.19766 752.57617 257.84375 C 766.27065 256.90848 778.69123 252.08037 781.125 250.77734 C 794.21194 243.77067 812.3418 225.36719 812.3418 225.36719 L 815.49609 172.97266 L 781.13477 135.70117 C 781.57044 133.29181 780.8548 130.81738 779.20117 129.01172 C 777.73376 127.41996 775.76062 126.57359 773.75586 126.49219 z M 924.94727 129.5918 C 926.22513 130.79228 927.47156 131.99491 928.64648 133.20312 L 925.90234 182.91602 L 892.33203 214.07422 L 890.60742 220.52539 C 890.60742 220.52539 882.45596 222.19195 878.54688 226.85156 C 874.6378 231.5112 875.80664 238.81055 875.80664 238.81055 C 875.80664 238.81055 875.92692 238.76435 875.96484 238.75195 C 874.91775 242.40847 875.84967 246.34646 878.42383 249.14648 C 882.51072 253.57802 889.41689 253.85904 893.84961 249.77344 C 898.28244 245.68681 898.5627 238.78093 894.47656 234.34766 C 894.05951 233.90283 893.60646 233.49408 893.12109 233.125 L 896.58203 218.66406 L 931.44141 186.45312 L 931.46484 186.45117 L 934.13672 139.33203 C 935.24153 140.63598 936.35737 141.9404 937.41406 143.24219 L 932.19336 231.2793 L 915.83789 246.55078 L 914.18555 256.58594 L 938.14648 234.28516 L 938.22656 234.28125 L 938.23242 234.20312 L 938.31836 234.12305 L 938.24219 234.03906 L 942.88281 150.22852 C 944.22652 152.01534 945.34641 153.7587 946.60352 155.53125 L 942.58984 236.66406 L 910.33984 266.57812 L 914.71094 232.76953 C 917.24048 232.63381 919.64386 231.6215 921.50977 229.9082 C 925.94188 225.82079 926.22169 218.91498 922.13477 214.48242 C 918.04786 210.05088 911.14172 209.76984 906.70898 213.85547 C 902.27615 217.94208 901.99589 224.84992 906.08203 229.2832 C 906.77961 230.03883 907.58058 230.69111 908.46094 231.22266 L 902.60156 273.74414 L 906.74805 278.43359 L 948.57422 239.6582 L 948.65039 239.64648 L 948.65234 239.58594 L 948.75781 239.49023 L 948.66016 239.44141 L 952.10547 163.41797 C 953.61922 165.74678 954.89315 167.99051 956.26367 170.27148 L 953.09961 243.57422 L 906.11328 287.12305 C 903.44772 283.23732 900.53012 279.56999 897.35547 276.19336 C 891.87018 270.35908 885.63902 265.37355 878.71484 261.55273 C 875.59954 259.83369 872.35379 258.61082 869.04297 257.82031 L 870.6582 228.7832 L 922.71094 180.58398 L 924.94727 129.5918 z M 773.58789 130.62695 C 774.53462 130.66514 775.46709 131.06476 776.16016 131.81641 C 777.54611 133.31985 777.44933 135.66154 775.94531 137.04688 C 774.44242 138.43232 772.10046 138.33671 770.71484 136.83398 C 769.3294 135.3311 769.42501 132.99109 770.92773 131.60547 C 771.67909 130.91209 772.64116 130.58876 773.58789 130.62695 z M 848.93164 136.60938 C 850.1507 136.65887 851.35162 137.17299 852.24414 138.14062 C 854.02963 140.07653 853.90654 143.09335 851.9707 144.87891 C 850.03425 146.66492 847.01772 146.54259 845.23242 144.60547 C 843.44773 142.66883 843.56929 139.65196 845.50586 137.86719 C 846.4739 136.97509 847.71258 136.55988 848.93164 136.60938 z M 627.79492 142.45703 C 624.38827 142.31871 620.92934 143.48098 618.22461 145.97461 C 612.8152 150.96192 612.47367 159.38936 617.46094 164.79883 C 618.81446 166.25954 620.47828 167.39838 622.33008 168.13086 L 621.16211 186.07617 C 619.80129 186.36792 618.54274 187.01791 617.51562 187.95703 C 614.33267 190.89133 614.13068 195.84977 617.06445 199.0332 C 617.90893 199.9403 618.95645 200.63482 620.12109 201.05859 L 619.33984 222.21484 L 675.10938 282.70508 L 672.89844 318.24219 L 644.89844 344.26953 L 641.60742 397.56055 L 649.20508 390.94336 L 651.27344 346.90039 L 679.06445 321.25391 L 681.10742 279.98047 L 624.30859 218.375 L 625.14258 201.20117 C 626.25748 200.85871 627.28327 200.271 628.14258 199.48242 C 631.32609 196.54759 631.52689 191.58756 628.5918 188.4043 C 627.94204 187.70987 627.17235 187.13919 626.31836 186.7207 L 627.48633 169.07812 C 630.75102 169.02463 633.88177 167.77461 636.28516 165.56445 C 641.69456 160.57714 642.0361 152.14775 637.04883 146.73828 C 634.55517 144.03358 631.20157 142.59535 627.79492 142.45703 z M 627.50977 149.48438 C 629.11821 149.54943 630.7033 150.22903 631.88086 151.50586 C 634.23649 154.06011 634.07449 158.03967 631.51953 160.39453 C 628.96529 162.75015 624.98376 162.58815 622.62891 160.0332 C 620.27459 157.47879 620.43779 153.49887 622.99219 151.14453 C 624.26903 149.96697 625.90132 149.41932 627.50977 149.48438 z M 893.83594 152.05469 A 13.65861 13.65861 0 0 1 907.49414 165.71289 A 13.65861 13.65861 0 0 1 893.83594 179.37109 A 13.65861 13.65861 0 0 1 880.17578 165.71289 A 13.65861 13.65861 0 0 1 893.83594 152.05469 z M 652.90625 154.16602 C 653.85267 154.20445 654.78375 154.6041 655.47656 155.35547 C 656.862 156.85835 656.76834 159.20033 655.26562 160.58594 C 653.76274 161.97139 651.42076 161.87577 650.03516 160.37305 C 648.64971 158.87016 648.74531 156.53015 650.24805 155.14453 C 650.99949 154.45182 651.95983 154.12759 652.90625 154.16602 z M 640.4375 172.35547 C 641.38392 172.3939 642.31696 172.79356 643.00977 173.54492 C 644.3952 175.04781 644.29959 177.38977 642.79688 178.77539 C 641.29416 180.16215 638.95058 180.06774 637.56445 178.56445 C 636.17849 177.061 636.27528 174.71932 637.7793 173.33398 C 638.53075 172.64127 639.49108 172.31704 640.4375 172.35547 z M 851.8418 175.14648 C 852.78822 175.18491 853.72125 175.58457 854.41406 176.33594 C 855.7995 177.83883 855.7039 180.18079 854.20117 181.56641 C 852.69828 182.95184 850.35632 182.85624 848.9707 181.35352 C 847.58526 179.85063 847.68087 177.51062 849.18359 176.125 C 849.93504 175.43228 850.89538 175.10806 851.8418 175.14648 z M 877.45703 180.59961 C 877.53513 180.69931 877.6136 180.79813 877.69336 180.89648 C 878.20059 181.42353 878.73381 181.92455 879.29102 182.39844 L 805.06641 251.0293 L 795.125 328.31055 L 770.60742 352.68164 L 757.22852 357.02539 L 706.46875 355.31641 L 711.99414 350.20508 L 725.57031 342.24414 L 727.61328 333.66406 C 728.0953 333.72746 728.58053 333.76825 729.06641 333.76172 C 733.53326 347.75653 748.89911 351.19599 753.78906 351.14258 C 758.99728 351.08578 765.57061 351.85877 778.16797 333.31055 C 790.76533 314.7624 801.23828 258.00781 801.23828 258.00781 L 795.50977 263.28906 C 795.50976 263.28905 782.01348 303.99014 779.12305 309.79492 C 776.23262 315.59968 766.90608 344.0854 750.54297 341.37891 C 740.80385 339.76801 738.16648 333.53617 737.61328 328.74609 C 739.74744 325.04765 739.34576 320.24641 736.29883 316.94141 C 733.22986 313.61284 728.43058 312.83462 724.55664 314.71289 C 719.85077 313.73698 713.96962 310.56942 713.16211 300.83398 C 711.79111 284.30528 740.93901 277.31851 746.95898 274.9082 C 751.24051 273.19395 773.54951 267.56423 786.07812 264.45508 L 788.16211 262.375 L 877.45703 180.59961 z M 836.05859 189.2793 C 837.00502 189.31773 837.9361 189.71739 838.62891 190.46875 C 840.01434 191.97163 839.9207 194.3136 838.41797 195.69922 C 836.91508 197.08467 834.57311 196.98905 833.1875 195.48633 C 831.80205 193.98344 831.89767 191.64148 833.40039 190.25586 C 834.15184 189.56314 835.11217 189.24087 836.05859 189.2793 z M 622.97852 190.02148 C 623.92494 190.05991 624.85602 190.45957 625.54883 191.21094 C 626.93427 192.71383 626.83867 195.05382 625.33594 196.43945 C 623.83307 197.82489 621.49304 197.73124 620.10742 196.22852 C 618.72197 194.72564 618.81562 192.38366 620.31836 190.99805 C 621.0698 190.30532 622.03209 189.98306 622.97852 190.02148 z M 914.31641 216.73242 C 915.6344 216.78594 916.93361 217.34234 917.89844 218.38867 C 919.82909 220.48146 919.69674 223.74366 917.60352 225.67383 C 915.51017 227.605 912.2463 227.47148 910.31641 225.37695 C 908.38655 223.28344 908.52128 220.02313 910.61523 218.09375 C 911.66171 217.12908 912.99841 216.67891 914.31641 216.73242 z M 979.25391 224.69922 C 979.34221 225.10326 979.48944 225.62069 979.56836 226.00586 C 988.5368 269.77563 985.68276 309.89668 976.91406 343.56445 C 976.46176 342.48621 975.82902 341.49258 975.04297 340.62695 C 974.51915 340.07178 973.93603 339.57642 973.30273 339.15039 L 979.25391 224.69922 z M 888.96875 226.66016 L 887.83008 230.92773 C 885.78205 230.66904 883.70354 230.99588 881.83398 231.87109 C 882.12418 231.04967 882.55336 230.19308 883.42188 229.29297 C 885.56403 227.07291 888.96875 226.66016 888.96875 226.66016 z M 617.19141 227.43359 C 615.18665 227.3522 613.15022 228.03441 611.55859 229.50195 C 608.37637 232.43706 608.1748 237.39736 611.10938 240.58008 C 614.04368 243.76303 619.00405 243.96504 622.1875 241.03125 C 625.37101 238.09642 625.57182 233.13639 622.63672 229.95312 C 621.1693 228.36137 619.19616 227.51499 617.19141 227.43359 z M 851.26172 230.24609 L 850.6582 237.50195 L 842.18945 245.66016 C 840.37694 245.17414 838.44287 245.64875 837.0625 246.91992 C 834.83858 248.97004 834.69767 252.43649 836.74805 254.66016 C 838.79816 256.88406 842.26266 257.02303 844.48633 254.97266 C 845.81788 253.74094 846.45217 251.93032 846.18164 250.13672 L 850.20508 246.19336 L 849.43164 257.85352 C 836.88361 260.59121 825.16298 268.17611 817.58984 278.06836 L 820.63086 258.56836 L 851.26172 230.24609 z M 617.02344 231.56836 C 617.97017 231.60655 618.90263 232.00422 619.5957 232.75586 C 620.98167 234.25932 620.88489 236.60293 619.38086 237.98828 C 617.87797 239.37372 615.53796 239.27811 614.15234 237.77539 C 612.7669 236.27249 612.86055 233.93054 614.36328 232.54492 C 615.11465 231.85154 616.0767 231.53017 617.02344 231.56836 z M 886.6582 236.5957 C 887.97681 236.64924 889.27529 237.20665 890.24023 238.25391 C 892.17008 240.34742 892.03732 243.60774 889.94336 245.53711 C 887.8504 247.46645 884.58981 247.33486 882.66016 245.24219 C 880.72952 243.14941 880.86185 239.8872 882.95508 237.95703 C 884.00175 236.99145 885.3396 236.54216 886.6582 236.5957 z M 629.31055 247.54297 C 627.3061 247.46193 625.26931 248.14599 623.67773 249.61328 C 620.49474 252.54805 620.29196 257.5063 623.22656 260.68945 C 625.78407 263.46328 629.8789 263.97223 632.99609 262.11523 L 642.92773 263.46875 L 665.83984 288.32031 L 663.95312 311.72266 L 648.95117 325.6543 L 649.83203 304.61328 C 649.99132 304.49812 650.14382 304.37441 650.29102 304.24414 C 652.72157 302.00302 652.87562 298.21593 650.63477 295.78516 C 648.39365 293.3546 644.60657 293.20055 642.17578 295.44141 C 639.74524 297.68251 639.59117 301.46961 641.83203 303.90039 C 642.62684 304.75953 643.65667 305.36798 644.79297 305.64844 L 643.32227 330.87891 L 634.02344 339.51172 L 631.12891 390.04297 L 637.49023 396.94141 L 640.55273 342.00391 L 670.88477 313.83008 L 672.33008 286.12891 L 644.71484 256.17578 L 636.82422 255.58594 C 636.87722 253.61634 636.19685 251.6236 634.75586 250.06055 C 633.28848 248.46904 631.315 247.62401 629.31055 247.54297 z M 840.87891 248.36328 C 841.54018 248.39013 842.1918 248.66826 842.67578 249.19336 C 843.64404 250.2433 843.57754 251.87969 842.52734 252.84766 C 841.47741 253.81593 839.84103 253.74942 838.87305 252.69922 C 837.90478 251.64929 837.97128 250.0129 839.02148 249.04492 C 839.54645 248.56079 840.21763 248.33643 840.87891 248.36328 z M 629.14062 251.67773 C 630.08703 251.71616 631.02006 252.11563 631.71289 252.86719 C 633.09872 254.37016 633.00507 256.71201 631.50195 258.09766 C 629.99897 259.48349 627.65519 259.38788 626.26953 257.88477 C 624.88369 256.38179 624.97929 254.03998 626.48242 252.6543 C 627.2339 251.96138 628.19422 251.63931 629.14062 251.67773 z M 894.01953 255.11133 C 892.61909 255.05446 891.19582 255.53145 890.08398 256.55664 C 887.86007 258.60676 887.71915 262.07126 889.76953 264.29492 C 891.81965 266.51883 895.2861 266.65975 897.50977 264.60938 C 899.73367 262.55926 899.87263 259.09476 897.82227 256.87109 C 896.79721 255.75914 895.41997 255.16819 894.01953 255.11133 z M 893.90234 258 C 894.56362 258.02685 895.21328 258.30498 895.69727 258.83008 C 896.66553 259.88002 896.59903 261.51641 895.54883 262.48438 C 894.4989 263.45264 892.86446 263.38614 891.89648 262.33594 C 890.92822 261.28601 890.99472 259.64962 892.04492 258.68164 C 892.56989 258.19751 893.24107 257.97315 893.90234 258 z M 702.1543 266.82422 C 703.76304 266.88954 705.34797 267.56823 706.52539 268.8457 C 708.88102 271.39995 708.71901 275.37952 706.16406 277.73438 C 703.60982 280.09 699.62831 279.92996 697.27344 277.375 C 694.91781 274.82075 695.07981 270.83923 697.63477 268.48438 C 698.91188 267.30657 700.54556 266.7589 702.1543 266.82422 z M 689.95703 289.58008 L 683.86133 295.29297 L 682.36523 325.56836 L 679.73047 327.99609 C 677.73026 327.42964 675.57959 327.94104 674.04883 329.34766 C 672.51978 330.76146 671.83594 332.86765 672.24219 334.91016 L 656.25391 349.85352 L 654.57227 385.99414 L 660.15234 380.85156 L 661.52539 353.50391 L 676.49414 339.50781 C 678.49207 340.06865 680.63878 339.55527 682.16602 338.15039 C 683.74038 336.69072 684.41252 334.49967 683.92773 332.4082 L 688.38672 328.25586 L 689.95703 289.58008 z M 646.34766 297.01953 C 647.07032 297.04888 647.7815 297.35406 648.31055 297.92773 C 649.36832 299.07536 649.29579 300.86182 648.14844 301.91992 C 647.0008 302.9777 645.21435 302.90514 644.15625 301.75781 C 643.09847 300.61017 643.17102 298.82372 644.31836 297.76562 C 644.89217 297.23673 645.62499 296.99019 646.34766 297.01953 z M 953.28711 298.85547 C 950.08945 298.72588 946.84132 299.81536 944.30273 302.15625 C 939.22603 306.83741 938.90545 314.74885 943.58594 319.82617 C 945.01042 321.3549 946.7952 322.50088 948.77734 323.16211 L 946.76562 338.32617 L 936.74609 347.77734 L 934.77734 388.88672 L 894.91406 425.8418 L 899.16992 430.42969 L 941.70312 391.00781 L 943.43945 350.11523 L 952.70117 341.36719 L 954.94336 323.66602 C 957.30319 323.25119 959.49252 322.16727 961.25391 320.54297 C 966.33191 315.86209 966.6556 307.95094 961.97461 302.87305 C 959.63378 300.33441 956.48477 298.98505 953.28711 298.85547 z M 624.93555 299.01758 C 623.40479 298.95542 621.85016 299.47723 620.63477 300.59766 C 618.20421 302.83877 618.05015 306.62585 620.29102 309.05664 C 620.98096 309.79762 621.84822 310.35138 622.81055 310.66602 L 622.23633 329.32031 C 621.54979 329.58639 620.91793 329.97744 620.37305 330.47266 C 617.94249 332.71376 617.78843 336.50084 620.0293 338.93164 C 620.58436 339.53074 621.25658 340.01042 622.00391 340.33984 L 621.40234 359.80273 C 620.82328 360.06292 620.28922 360.41386 619.82031 360.8418 C 617.38975 363.08291 615.68688 368.16686 617.92773 370.59766 C 620.16885 373.02819 625.50671 371.88344 627.9375 369.64258 C 630.36804 367.40148 630.52014 363.61438 628.2793 361.18359 C 627.88276 360.75447 627.42717 360.38651 626.92383 360.08984 L 627.25391 340.14062 C 627.70072 339.90606 628.1162 339.61611 628.49023 339.27734 C 630.92135 337.03571 631.0742 333.24701 628.83203 330.81641 C 628.50716 330.46994 628.14177 330.1641 627.74414 329.9043 L 628.07617 309.93555 C 628.31346 309.77309 628.53842 309.59518 628.75 309.40039 C 631.18056 307.15927 631.33462 303.37219 629.09375 300.94141 C 627.9732 299.72613 626.4663 299.07973 624.93555 299.01758 z M 624.80664 302.17578 C 625.5293 302.20512 626.24243 302.51031 626.77148 303.08398 C 627.82925 304.23162 627.75671 306.01807 626.60938 307.07617 C 625.46175 308.13395 623.67333 308.0614 622.61523 306.91406 C 621.55746 305.76642 621.63 303.97802 622.77734 302.91992 C 623.35116 302.39103 624.08398 302.14644 624.80664 302.17578 z M 953.01953 305.45117 C 954.52934 305.51248 956.01597 306.14888 957.12109 307.34766 C 959.33156 309.74501 959.1788 313.48115 956.78125 315.69141 C 954.38389 317.90187 950.64776 317.74911 948.4375 315.35156 C 946.22704 312.9542 946.3798 309.22002 948.77734 307.00977 C 949.97603 305.90453 951.50972 305.38987 953.01953 305.45117 z M 729.02539 319.63477 C 730.1387 319.67997 731.23603 320.15101 732.05078 321.03516 C 733.67983 322.80283 733.56657 325.55655 731.79883 327.18555 C 730.03171 328.81407 727.27966 328.70197 725.65039 326.93555 C 724.02054 325.16859 724.13145 322.41494 725.89844 320.78516 C 726.7822 319.96997 727.91209 319.58956 729.02539 319.63477 z M 678.22266 330.92578 C 678.94532 330.95512 679.6565 331.26031 680.18555 331.83398 C 681.24466 332.98145 681.17134 334.76951 680.02344 335.82812 C 678.87542 336.88773 677.08567 336.81521 676.02734 335.66602 C 674.96903 334.51781 675.04277 332.72969 676.19141 331.67188 C 676.76523 331.14299 677.49999 330.89644 678.22266 330.92578 z M 624.54492 332.05078 C 625.26758 332.08012 625.97876 332.38531 626.50781 332.95898 C 627.56692 334.10644 627.49557 335.8945 626.34766 336.95312 C 625.19946 338.01142 623.41134 337.93771 622.35352 336.78906 C 621.29575 335.64142 621.36829 333.85497 622.51562 332.79688 C 623.08944 332.26799 623.82226 332.02144 624.54492 332.05078 z M 801.56445 335.41602 L 795.57227 341.80469 L 793.41602 370.86328 L 783.16797 380.47852 L 704.14258 377.08594 L 658.25781 419.46875 L 662.5 424.06836 L 706.5 383.42383 L 786.80273 386.51562 L 786.80469 386.50977 L 786.86328 386.54297 L 798.63672 374.56055 L 801.56445 335.41602 z M 967.67383 342.74805 C 968.91648 342.7985 970.14132 343.32178 971.05078 344.30859 C 972.87045 346.28153 972.7451 349.35685 970.77148 351.17578 C 968.79838 352.99414 965.72465 352.86956 963.90625 350.89648 C 962.0871 348.92411 962.21127 345.85044 964.18359 344.03125 C 965.17007 343.12142 966.43118 342.69759 967.67383 342.74805 z M 623.99414 362.41797 C 624.71712 362.44707 625.42967 362.75222 625.95898 363.32617 C 627.01727 364.47437 626.94355 366.26249 625.79492 367.32031 C 624.64729 368.3781 622.85888 368.30555 621.80078 367.1582 C 620.74299 366.01057 620.81555 364.22216 621.96289 363.16406 C 622.53663 362.63452 623.27117 362.38886 623.99414 362.41797 z M 701.38086 365.46484 L 651.19922 411.81055 L 655.43945 416.41016 L 702.86523 372.60938 L 785.75 376.12695 L 792.42773 369.94141 L 701.38086 365.46484 z M 821.08984 382.08398 C 822.07617 383.54875 823.06105 384.90963 824.04688 386.21094 L 823.69141 398.41406 C 822.55637 398.1546 821.38712 398.08023 820.22852 398.19531 L 821.08984 382.08398 z M 803.57422 383.34961 C 804.47568 383.38621 805.36351 383.76678 806.02344 384.48242 C 807.34432 385.91379 807.2541 388.14448 805.82227 389.46484 C 804.39018 390.78491 802.15941 390.6943 800.83984 389.26172 C 799.52028 387.83018 799.60974 385.59914 801.04102 384.2793 C 801.75678 383.61951 802.67276 383.31301 803.57422 383.34961 z M 717.23047 397.24219 C 714.47761 397.13041 711.68183 398.06907 709.49609 400.08398 C 709.05028 400.50316 708.64168 400.95852 708.27344 401.44727 L 672.28906 434.6875 L 676.5293 439.28711 L 706.61523 411.48242 C 707.09657 412.89705 707.86819 414.19629 708.87891 415.29688 C 712.90927 419.66785 719.72032 419.94389 724.0918 415.91406 C 728.46277 411.88369 728.73881 405.07265 724.70898 400.70117 C 722.6938 398.51568 719.98333 397.35396 717.23047 397.24219 z M 717 402.91797 C 718.30008 402.97076 719.57973 403.52038 720.53125 404.55273 C 722.43359 406.61708 722.30244 409.83184 720.23828 411.73438 C 718.17467 413.6375 714.95997 413.50875 713.05664 411.44531 C 711.153 409.38112 711.28293 406.16476 713.34766 404.26172 C 714.37975 403.3099 715.69992 402.86518 717 402.91797 z M 821.46289 403.80469 C 822.76236 403.85745 824.04079 404.40607 824.99219 405.4375 C 826.89532 407.50112 826.76656 410.71778 824.70312 412.62109 C 822.63895 414.52473 819.42258 414.39284 817.51953 412.32812 C 815.6172 410.26379 815.74834 407.04902 817.8125 405.14648 C 818.84439 404.19558 820.16343 403.75192 821.46289 403.80469 z M 854.95117 413.82617 C 856.19382 413.87663 857.41867 414.39991 858.32812 415.38672 C 860.14779 417.35966 860.02245 420.43499 858.04883 422.25391 C 856.07589 424.07357 853.00056 423.94824 851.18164 421.97461 C 849.36198 420.00166 849.4873 416.92829 851.46094 415.10938 C 852.44741 414.19955 853.70852 413.77571 854.95117 413.82617 z M 753.55469 421.26367 C 754.62872 421.30753 755.68668 421.76035 756.47266 422.61328 C 758.04547 424.31837 757.93757 426.97607 756.23242 428.54883 C 754.52677 430.12217 751.86936 430.01502 750.29688 428.30859 C 748.72355 426.60294 748.83066 423.94357 750.53711 422.37109 C 751.39002 421.58508 752.48066 421.21981 753.55469 421.26367 z M 833.94727 433.68164 C 834.84904 433.71801 835.73825 434.09853 836.39844 434.81445 C 837.71984 436.24638 837.62845 438.47874 836.19531 439.79883 C 834.76321 441.11891 832.53246 441.02827 831.21289 439.5957 C 829.89332 438.16415 829.98278 435.93312 831.41406 434.61328 C 832.12975 433.95284 833.04549 433.64528 833.94727 433.68164 z M 760.46094 444.58594 C 761.42265 444.61073 762.36327 445.00224 763.05664 445.75391 C 764.44392 447.25777 764.31274 449.63416 762.76367 451.0625 C 761.21443 452.49069 758.83567 452.43042 757.44922 450.92578 C 756.06326 449.4217 756.19368 447.045 757.74219 445.61719 C 758.51652 444.90336 759.49923 444.56115 760.46094 444.58594 z M 882.1875 444.62305 C 883.43015 444.6735 884.65305 445.19874 885.5625 446.18555 C 887.38216 448.15848 887.25681 451.23186 885.2832 453.05078 C 883.31027 454.87045 880.2369 454.74511 878.41797 452.77148 C 876.59831 450.79856 876.72168 447.72517 878.69531 445.90625 C 879.68178 444.99642 880.94485 444.57259 882.1875 444.62305 z M 854.35742 455.30078 C 855.25889 455.33738 856.14672 455.71795 856.80664 456.43359 C 858.12621 457.86513 858.03479 460.09618 856.60352 461.41602 C 855.17198 462.73558 852.94094 462.64417 851.62109 461.21289 C 850.30154 459.78135 850.39294 457.55227 851.82422 456.23242 C 852.53999 455.57264 853.45596 455.26418 854.35742 455.30078 z " /><path
       id="path16-4-3-2-3-1-0-1-1-1-4-2-7-0"
       style="display:inline;fill:#000000;fill-opacity:1;stroke-width:0.835561"
       d="m 392.7319,712.24627 -4.58077,4.15692 25.59762,27.7643 c -1.34306,0.26444 -2.63615,0.73855 -3.83185,1.40493 l -24.55703,-26.63565 -4.58092,4.15964 24.58881,26.6701 c -0.76112,1.13773 -1.33851,2.38813 -1.71096,3.70533 l -25.66911,-27.84185 -4.58077,4.15692 33.21402,36.02539 c 4.88491,5.2992 13.1408,5.63502 18.43997,0.75012 5.29844,-4.88569 5.63306,-13.14163 0.74734,-18.44008 z m 28.01313,40.54412 c 2.30725,2.50195 2.14894,6.40071 -0.35355,8.70737 -2.50193,2.30722 -6.40071,2.14894 -8.70736,-0.35356 -2.30723,-2.50192 -2.1489,-6.4007 0.35355,-8.70736 2.50197,-2.30722 6.40073,-2.14892 8.70736,0.35355 z m 19.4666,33.64269 -4.69847,4.3318 56.59014,61.38016 c 0,0 5.80493,5.56383 0.57918,10.38176 -1.88828,1.47218 -4.02835,1.02614 -5.08837,0.28408 -0.13545,-0.58322 -0.27607,-1.15854 -0.42212,-1.72278 0.26541,-0.31597 0.69612,-0.50263 1.15145,-0.3762 1.7e-4,-0.004 -0.003,-0.008 -0.004,-0.0127 2.98608,1.56483 6.19621,-2.26977 3.38219,-5.41085 l -71.02331,-77.03501 -13.21938,-1.32876 -39.1729,-42.48866 -4.58077,4.15692 101.7378,110.3493 -0.51481,10.50045 c -0.93835,0.32621 -1.8002,0.84057 -2.53277,1.51157 -2.96257,2.7318 -3.14999,7.34787 -0.41865,10.31085 2.7315,2.96384 7.34862,3.15195 10.31217,0.4201 2.96309,-2.7323 3.14994,-7.34949 0.41733,-10.31228 -0.72179,-0.78141 -1.60624,-1.3949 -2.59049,-1.79839 l 0.7937,-13.82853 -58.46875,-63.41779 3.56157,0.28146 57.76444,62.65385 c 6.33757,7.75138 15.13048,22.01795 5.47521,33.04694 -13.955,15.94044 -32.64549,-1.05654 -27.03427,-14.84927 1.4801,-3.83215 2.81395,-6.23069 5.77429,-9.65384 l -27.27103,-29.57936 -14.39448,-0.71025 1.26481,-20.32512 -3.58893,-3.82928 -47.31297,-3.4028 -30.14786,-32.69971 -4.7329,4.29446 31.8888,34.58799 48.19258,2.70871 -0.55258,23.34514 16.63139,0.62968 22.6056,24.51904 c 0,0 -16.30892,16.49283 -0.0375,32.6835 15.3982,15.32176 33.82252,3.25589 37.47241,-7.06613 0.53635,-1.51691 0.80511,-3.2319 0.88224,-5.04793 3.77224,-0.53282 7.04912,-2.03686 9.87944,-4.4117 9.81018,-9.0446 1.89018,-17.51458 1.89018,-17.51458 z m -53.13305,-17.40313 c -0.77629,-0.83315 -1.67979,-1.53797 -2.67687,-2.088 l 0.001,-0.001 -23.65811,-25.66063 -4.73154,4.29592 19.1595,20.78124 c -0.89522,0.3576 -1.73834,0.83382 -2.50677,1.41588 l -18.7279,-20.31311 -4.73154,4.29592 19.70362,21.37141 c -1.14927,3.6657 -0.25824,7.66604 2.33818,10.49742 4.03036,4.37096 10.8409,4.64749 15.21235,0.61768 4.37096,-4.03036 4.6475,-10.8409 0.61769,-15.21236 z m 82.7964,94.95371 c 1.29101,1.39882 1.20309,3.57949 -0.19635,4.86983 -1.39955,1.29022 -3.58017,1.20106 -4.86972,-0.19911 -1.2897,-1.39899 -1.2012,-3.57857 0.19768,-4.86839 1.39898,-1.2897 3.57857,-1.20121 4.86839,0.19767 z m -86.97362,-91.10247 c 1.90362,2.06416 1.77303,5.28086 -0.29169,7.18391 -2.06418,1.90364 -5.28088,1.77301 -7.18391,-0.29169 -1.90366,-2.06419 -1.77305,-5.28087 0.29168,-7.18392 2.06419,-1.90365 5.28087,-1.77304 7.18392,0.2917 z m 22.33888,36.80707 -42.58901,-3.49436 -33.34496,-36.37487 -4.72867,4.29328 35.53481,38.54263 39.97147,1.7156 -0.37438,12.48822 7.20565,0.50545 0.61217,-8.26838 -3.06865,0.0717 z m 22.04691,23.91305 -41.21865,-0.37712 -14.70323,-15.94778 -11.37435,0.20853 -37.90461,-41.113 -4.73154,4.29592 39.91958,43.29853 12.75407,-0.55611 13.73017,14.89235 c -1.9363,0.38342 -3.72994,1.29177 -5.18483,2.62577 -1.6742,1.55715 -2.80958,3.60666 -3.24114,5.85196 -0.87936,-1.67653 -1.96895,-3.23408 -3.24245,-4.63488 -5.09979,-5.52556 -12.64495,-8.1024 -20.05957,-6.85197 l -43.21609,-46.87407 -4.73154,4.29592 40.16451,43.56419 1.16371,1.26221 8.65301,9.38544 c 3.40866,-0.55794 6.94971,0.56538 9.38725,3.18289 3.93585,4.26796 3.6658,10.91876 -0.60311,14.85358 -4.26815,3.93456 -10.91784,3.66392 -14.85214,-0.60443 -2.4084,-2.63837 -3.22855,-6.25142 -2.40087,-9.60016 l -0.17991,-0.19808 -8.48223,-9.2002 -0.37996,-0.41212 -41.01047,-44.48177 -4.73025,4.29732 43.34053,47.00905 c -1.8476,7.28948 0.10993,15.01911 5.20443,20.55049 8.33346,9.03776 22.4154,9.60953 31.45415,1.27714 4.85145,-4.48658 7.45896,-10.89667 7.11692,-17.49587 0.009,0.0117 0.0181,0.024 0.0275,0.0357 4.0301,4.37228 10.84166,4.64945 15.21368,0.61912 4.09656,-3.79592 4.61038,-10.09409 1.18326,-14.50382 l 0.0229,-0.0212 -0.28595,-0.31017 c -0.0107,-0.0131 -0.0207,-0.0269 -0.0315,-0.0401 l 29.22543,0.5771 16.06818,17.42826 6.57957,-6.06611 z m -37.67826,11.79597 c 1.90365,2.06419 1.77305,5.28088 -0.29169,7.18393 -2.06433,1.90232 -5.27996,1.77115 -7.18249,-0.29302 -1.9018,-2.06377 -1.77128,-5.27837 0.29158,-7.18116 2.06362,-1.90313 5.2793,-1.77317 7.1826,0.29025 z m -10.77858,18.96438 c -1.68106,6.22291 -7.80847,15.81026 -19.64588,17.64784 l -6.55707,6.09053 51.05491,55.3764 c 4.37258,4.61685 2.02623,15.17364 -8.7287,19.8479 l 6.37723,6.91702 c 10.87456,-8.06086 19.32905,-16.99147 9.12698,-32.61852 l -44.27521,-48.02284 18.96936,-18.38162 z m -17.69223,-12.1188 c -1.87261,-2.02374 -4.76587,-2.77254 -7.44789,-1.92651 l -1.18489,-1.28518 -1.18489,-1.28519 -8.17906,-8.87137 -0.78507,-0.85152 -40.17774,-43.57855 -4.73154,4.29592 40.9959,44.46597 8.17906,8.87137 0.81817,0.88742 1.55161,1.68295 c -1.05975,2.60448 -0.5478,5.5486 1.31778,7.57824 2.69056,2.9181 7.2953,3.04939 10.28552,0.29323 2.99078,-2.75665 3.23392,-7.35792 0.54305,-10.27676 z m -73.60466,-44.50594 -3.17158,2.87891 23.80374,25.81858 c -1.93142,0.18593 -3.77672,0.89043 -5.34069,2.03891 l -22.39378,-24.28928 -3.17157,2.8789 22.67445,24.59371 c -2.41219,4.08761 -1.86306,9.27262 1.35184,12.76428 4.03088,4.37151 10.8425,4.64747 15.21379,0.61634 4.37098,-4.03038 4.6475,-10.84089 0.61769,-15.21235 z m 25.40523,35.94054 c 1.90312,2.06363 1.77318,5.27927 -0.29026,7.1826 -2.06416,1.90362 -5.28086,1.77303 -7.18391,-0.2917 -1.90366,-2.06418 -1.77303,-5.28088 0.29168,-7.18392 2.06435,-1.90234 5.27996,-1.77115 7.18249,0.29302 z m 22.50572,30.89386 -46.49821,-2.53348 -32.81849,-35.79234 -4.36848,3.9665 33.77668,36.63568 45.00272,2.59992 57.7447,62.42499 c -0.86788,0.34978 -1.68286,0.81864 -2.42151,1.39308 l -55.54161,-60.24288 -45.5536,-2.61538 -35.21311,-38.1937 -4.36991,3.96783 37.18042,40.32752 43.05572,1.39576 56.71591,61.51657 c -0.25072,1.39352 -0.20519,2.82426 0.13359,4.19904 0.56248,4.06007 2.35288,13.42343 2.09807,14.70893 -5.40629,27.27334 -43.70307,10.09091 -25.27937,-13.2714 l -39.96781,-43.30187 -48.6112,-2.54327 -43.17505,-46.82956 -6.40058,5.81077 19.05623,20.66923 -1.80221,1.79971 -19.13831,-20.75826 -6.40057,5.81077 25.15278,27.28182 8.26634,-7.54154 22.32362,24.21318 49.04115,2.43908 31.64123,34.31947 c -15.83516,33.65795 29.86634,51.73461 46.86906,18.04584 -1.27178,-0.75165 -9.66741,-7.11758 -7.79365,-11.82747 0.84563,-2.12553 6.42439,-0.91528 6.19029,-1.61878 -0.003,-0.007 -0.007,-0.0152 -0.01,-0.0226 1.69474,-0.38865 3.26027,-1.20878 4.5446,-2.38086 4.09523,-3.77578 4.35432,-10.15654 0.57869,-14.25192 -0.36585,-0.39091 -0.76187,-0.75244 -1.18491,-1.08062 l 0.50177,-0.0349 z m 60.09352,73.40938 c 1.78235,1.93354 1.66006,4.94585 -0.27321,6.72854 -1.93356,1.78238 -4.94586,1.66004 -6.72854,-0.2732 -1.78369,-1.93339 -1.66195,-4.94677 0.27187,-6.72999 1.93413,-1.78289 4.94747,-1.65992 6.72988,0.27465 z M 292.0982,843.4961 l -0.0587,-0.0548 -19.97236,-21.6629 -3.17157,2.8789 15.21558,16.5035 c -1.29611,0.32761 -2.49118,0.97041 -3.47897,1.87123 -0.97866,0.91318 -1.71648,2.05405 -2.14735,3.32134 l -15.25928,-16.55089 -3.17156,2.8789 20.1127,21.81512 c 3.03709,3.29546 8.17081,3.50451 11.46579,0.46694 3.29601,-3.03762 3.50451,-8.1724 0.4656,-11.46723 z m -3.14906,2.90332 c 1.43523,1.55573 1.33677,3.98059 -0.21987,5.41484 -1.5559,1.43393 -3.97967,1.3349 -5.41341,-0.22118 -1.43341,-1.55535 -1.33504,-3.97808 0.21975,-5.41209 1.53864,-1.41585 3.92855,-1.33583 5.3695,0.17932 l 0.0397,0.0431 z m 37.61816,45.06969 -1.80055,7.1033 44.8029,48.03045 -1.18952,12.07088 c -1.25594,0.27441 -2.41709,0.87574 -3.36595,1.74313 -2.96309,2.73229 -3.14997,7.34946 -0.41733,10.31228 2.7318,2.96255 7.34787,3.14996 10.31084,0.41866 2.96384,-2.73152 3.15194,-7.34862 0.42009,-10.31217 -0.24511,-0.2649 -0.50957,-0.51125 -0.79108,-0.73707 l 1.24398,-15.25051 z m -4.89935,9.96027 -46.90958,-1.55915 -40.45854,-43.81111 -4.3699,3.96781 42.11328,45.67793 47.86835,2.52416 42.75537,46.37436 4.33804,-3.99951 z m 50.82812,62.01699 c 1.29023,1.39955 1.20105,3.58018 -0.19911,4.86972 -1.39897,1.28968 -3.57858,1.20121 -4.8684,-0.19767 -1.29101,-1.39882 -1.20307,-3.57951 0.19635,-4.86984 1.39938,-1.29153 3.5811,-1.20294 4.87116,0.19779 z m -131.22749,-113.71122 -4.37127,3.96635 40.40413,43.82409 1.89423,-6.65305 z m -30.50452,27.69098 -3.37525,3.06138 10.70506,11.61118 3.3501,-3.08866 z" /><path
       id="rect885"
       style="fill:#000000;fill-opacity:1;stroke:none;stroke-width:0.922526;stroke-opacity:1"
       d="m 514.02761,402.8678 c -0.43784,-0.46605 -1.16562,-0.48871 -1.63163,-0.0508 l -90.68992,85.20867 c -0.46605,0.43784 -0.4887,1.16562 -0.0508,1.63165 l 2.55838,2.723 c 0.43784,0.46605 1.16561,0.4887 1.63164,0.0508 l 90.68992,-85.20868 c 0.46603,-0.43783 0.48869,-1.16559 0.0508,-1.63162 z m -100.47708,95.01801 c -0.60738,-0.64698 -1.61711,-0.6782 -2.26385,-0.0705 L 285.42708,616.068 c -0.64699,0.60738 -0.6782,1.61711 -0.0705,2.26385 l 1.9459,2.07106 c 0.60738,0.64699 1.61711,0.6782 2.26384,0.0705 L 415.42588,502.22073 c 0.64699,-0.60738 0.67819,-1.61712 0.0705,-2.26385 z M 281.87494,623.55133 a 6.5888324,6.5888324 0 0 0 -9.31216,-0.29017 6.5888324,6.5888324 0 0 0 -0.29159,9.31349 6.5888324,6.5888324 0 0 0 9.31493,0.29028 6.5888324,6.5888324 0 0 0 0.28882,-9.3136 z m -35.19814,33.0708 c -1.14669,-1.22043 -3.56248,-0.79873 -5.4168,0.94351 l -57.94714,54.44485 a 6.5888324,6.5888324 0 0 0 -6.69665,1.39829 6.5888324,6.5888324 0 0 0 -0.29018,9.31216 6.5888324,6.5888324 0 0 0 9.31351,0.29161 6.5888324,6.5888324 0 0 0 1.82391,-6.60728 l 57.93576,-54.43416 c 1.85424,-1.74232 2.42428,-4.12852 1.27759,-5.34898 z m -76.78032,72.13978 c -1.14669,-1.22043 -4.21151,-0.18894 -6.87295,2.31164 l -83.548589,78.49897 a 6.5888324,6.5888324 0 0 0 -6.696746,1.39838 6.5888324,6.5888324 0 0 0 -0.291583,9.31348 6.5888324,6.5888324 0 0 0 9.314931,0.29026 6.5888324,6.5888324 0 0 0 1.822504,-6.60597 l 83.538673,-78.48965 c 2.66141,-2.50064 3.88044,-5.49665 2.73376,-6.71711 z M 79.392996,813.7981 a 3.081809,3.081809 0 0 1 -0.137127,4.35515 3.081809,3.081809 0 0 1 -4.355171,-0.13436 3.081809,3.081809 0 0 1 0.135731,-4.35652 3.081809,3.081809 0 0 1 4.356567,0.13573 z" /><path
       d="m -476.04005,632.46194 c 15.18662,0 24.13993,-6.57331 24.13993,-17.67994 0,-20.62661 -31.16657,-13.59996 -31.16657,-22.89327 0,-3.39999 3.85332,-5.43998 10.6533,-5.43998 4.53332,0 9.9733,0.90666 15.07329,2.37999 l 2.94666,-10.87997 c -5.09999,-1.81333 -11.55997,-2.83332 -17.79329,-2.83332 -15.75328,0 -24.93326,6.45998 -24.93326,17.67994 0,20.51328 30.82658,12.6933 30.82658,22.77994 0,3.51332 -3.73999,5.66665 -9.9733,5.66665 -5.32665,0 -12.57997,-1.47333 -18.35995,-3.73999 l -3.28666,10.76663 c 6.34665,2.60666 14.39329,4.19332 21.87327,4.19332 z m 68.8198,-1.13333 h 18.58661 l -24.70659,-32.86657 -0.79333,6.00665 23.3466,-28.21991 h -16.77329 l -20.85327,25.95325 z m -34.79323,0 h 14.27996 v -83.75308 h -14.27996 z m 85.93312,1.13333 c 6.57331,0 13.48663,-1.24666 19.49328,-3.73999 l -3.17333,-10.08663 c -4.41999,1.81333 -9.2933,2.83332 -13.93996,2.83332 -11.89996,0 -18.24661,-6.57331 -18.24661,-19.37994 0,-10.3133 4.30665,-15.75329 12.0133,-15.75329 7.13998,0 11.21996,4.53332 11.21996,12.6933 h -25.15992 v 8.83997 h 38.19322 c 0.34,-2.26666 0.56666,-5.66665 0.56666,-8.27331 0,-14.95995 -9.17997,-24.47992 -23.79993,-24.47992 -16.43328,0 -27.42658,11.78663 -27.42658,28.89991 0,17.67995 11.44663,28.44658 30.25991,28.44658 z m 47.17326,-0.22666 c 3.51333,0 7.59331,-0.79333 10.53997,-2.04 l -2.94666,-9.74663 c -1.24666,0.45333 -2.49332,0.67999 -3.51332,0.67999 -3.39999,0 -5.21332,-2.15332 -5.21332,-6.00665 v -67.54646 h -14.27996 v 69.35979 c 0,9.51997 5.77999,15.29996 15.41329,15.29996 z m 43.77323,0.22666 c 6.57332,0 13.48663,-1.24666 19.49328,-3.73999 l -3.17332,-10.08663 c -4.41999,1.81333 -9.29331,2.83332 -13.93996,2.83332 -11.89997,0 -18.24662,-6.57331 -18.24662,-19.37994 0,-10.3133 4.30666,-15.75329 12.0133,-15.75329 7.13998,0 11.21997,4.53332 11.21997,12.6933 h -25.15993 v 8.83997 h 38.19322 c 0.34,-2.26666 0.56667,-5.66665 0.56667,-8.27331 0,-14.95995 -9.17997,-24.47992 -23.79993,-24.47992 -16.43329,0 -27.42659,11.78663 -27.42659,28.89991 0,17.67995 11.44664,28.44658 30.25991,28.44658 z m 53.51991,-0.34 c 3.85332,0 7.81997,-0.67999 11.44663,-1.92666 l -2.94666,-10.3133 c -1.58666,0.68 -3.62665,1.02 -5.32665,1.02 -5.21332,0 -8.49997,-3.05999 -8.49997,-7.70665 v -52.92651 h -14.27996 v 53.71984 c 0,11.21997 7.36664,18.13328 19.60661,18.13328 z m -27.19992,-44.3132 h 35.81323 v -11.55996 h -35.81323 z m 70.51972,44.6532 c 17.33995,0 29.12658,-11.78663 29.12658,-29.46658 0,-16.88661 -10.76664,-27.87991 -27.42659,-27.87991 -17.45328,0 -29.01325,11.78663 -29.01325,29.57991 0,16.77328 10.65331,27.76658 27.31326,27.76658 z m 1.24666,-12.12663 c -8.49997,0 -13.93996,-6.57331 -13.93996,-16.88661 0,-9.85998 4.98665,-16.09329 13.14663,-16.09329 8.49997,0 13.93996,6.68665 13.93996,16.99995 0,9.85997 -4.98665,15.97995 -13.14663,15.97995 z m 74.826545,10.9933 h 14.506624 v -33.88656 c 0,-13.7133 -7.706644,-22.09994 -20.173274,-22.09994 -7.933315,0 -15.299955,3.51332 -20.399945,9.74664 l 2.15333,8.83997 c 3.62666,-3.85332 8.15998,-6.00665 13.25996,-6.00665 7.026649,0 10.653305,3.96666 10.653305,11.44664 z m -36.266565,0 h 14.3933 v -45.3332 l -4.07999,-9.74663 h -10.31331 z m 98.626396,0 h 18.586612 l -24.706594,-32.86657 -0.793331,6.00665 23.346598,-28.21991 h -16.773284 l -20.853272,25.95325 z m -34.793231,0 h 14.279958 v -83.75308 h -14.279958 z m 85.933102,1.13333 c 6.573314,0 13.486627,-1.24666 19.493276,-3.73999 l -3.173324,-10.08663 c -4.419987,1.81333 -9.293306,2.83332 -13.939959,2.83332 -11.899965,0 -18.2466129,-6.57331 -18.2466129,-19.37994 0,-10.3133 4.306654,-15.75329 12.0132979,-15.75329 7.139979,0 11.219967,4.53332 11.219967,12.6933 H 3.4854661 v 8.83997 H 41.678687 c 0.339999,-2.26666 0.566665,-5.66665 0.566665,-8.27331 0,-14.95995 -9.179973,-24.47992 -23.79993,-24.47992 -16.4332849,0 -27.4265859,11.78663 -27.4265859,28.89991 0,17.67995 11.446633,28.44658 30.2599109,28.44658 z m 35.386608,23.45993 h 15.526621 l 8.839974,-24.59326 21.19327,-55.07983 H 87.83193 l -15.526621,47.37319 3.513323,0.11333 -14.619957,-47.48652 H 45.218722 l 21.419937,55.07983 z"
       id="text886"
       style="font-weight:bold;font-size:113.333px;line-height:0;font-family:Cantarell;-inkscape-font-specification:'Cantarell Bold';letter-spacing:-2.24px;fill:#000000;fill-opacity:1"
       transform="rotate(-43.266256)"
       aria-label="skeletonkey" /></g></svg>
